# MagicaVoxel @ Ephtracy

# material
mtllib SpaceShipBody.mtl
usemtl palette

# normals
vn -1 0 0
vn 1 0 0
vn 0 0 1
vn 0 0 -1
vn 0 -1 0
vn 0 1 0

# texcoords
vt 0.642578 0.5
vt 0.931641 0.5
vt 0.935547 0.5

# verts
v -7 0 5
v -7 0 -3
v -7 1 5
v -7 1 -3
v -7 2 5
v -7 2 -0
v -7 2 -1
v -7 2 -3
v -7 3 5
v -7 3 -0
v -7 3 -1
v -7 3 -3
v -5 1 5
v -5 1 3
v -5 2 5
v -5 2 3
v -3 0 7
v -3 0 3
v -3 1 8
v -3 1 7
v -3 2 3
v -3 2 2
v -3 3 8
v -3 3 7
v -3 4 3
v -3 4 2
v -3 5 7
v -3 5 3
v -2 0 8
v -2 0 7
v -2 0 -2
v -2 0 -5
v -2 0 -6
v -2 1 8
v -2 1 7
v -2 2 -1
v -2 2 -2
v -2 2 -4
v -2 2 -5
v -2 2 -6
v -2 3 8
v -2 3 7
v -2 3 -1
v -2 3 -2
v -2 3 -4
v -2 5 8
v -2 5 7
v -1 0 -6
v -1 0 -7
v -1 0 -8
v -1 1 6
v -1 1 4
v -1 2 5
v -1 2 4
v -1 2 -4
v -1 2 -5
v -1 2 -6
v -1 2 -7
v -1 2 -8
v -1 3 -4
v -1 3 -6
v -1 4 6
v -1 4 5
v 1 0 8
v 1 0 7
v 1 1 8
v 1 1 7
v 1 1 -1
v 1 1 -2
v 1 3 -1
v 1 3 -2
v 2 1 7
v 2 1 2
v 2 1 1
v 2 1 -1
v 2 2 1
v 2 2 -0
v 2 3 -0
v 2 3 -1
v 2 4 3
v 2 4 2
v 2 5 7
v 2 5 3
v 4 0 5
v 4 0 3
v 4 0 -2
v 4 0 -3
v 4 1 5
v 4 1 3
v 4 1 2
v 4 1 1
v 4 1 -2
v 4 1 -3
v 4 2 5
v 4 2 3
v 4 2 2
v 4 2 1
v 4 2 -0
v 4 2 -1
v 4 2 -2
v 4 2 -3
v 4 3 5
v 4 3 -0
v 4 3 -1
v 4 3 -3
v 6 1 5
v 6 1 3
v 6 2 5
v 6 2 3
v -6 1 5
v -6 1 3
v -6 2 5
v -6 2 3
v -4 0 5
v -4 0 3
v -4 0 -2
v -4 0 -3
v -4 1 5
v -4 1 3
v -4 1 2
v -4 1 1
v -4 1 -2
v -4 1 -3
v -4 2 5
v -4 2 3
v -4 2 2
v -4 2 1
v -4 2 -0
v -4 2 -1
v -4 2 -2
v -4 2 -3
v -4 3 5
v -4 3 -0
v -4 3 -1
v -4 3 -3
v -2 1 7
v -2 1 2
v -2 1 1
v -2 1 -1
v -2 2 1
v -2 2 -0
v -2 3 -0
v -2 3 -1
v -2 4 3
v -2 4 2
v -2 5 7
v -2 5 3
v -1 0 8
v -1 0 7
v -1 1 8
v -1 1 7
v -1 1 -1
v -1 1 -2
v -1 3 -1
v -1 3 -2
v 1 0 -6
v 1 0 -7
v 1 0 -8
v 1 1 6
v 1 1 4
v 1 2 5
v 1 2 4
v 1 2 -4
v 1 2 -5
v 1 2 -6
v 1 2 -7
v 1 2 -8
v 1 3 -4
v 1 3 -6
v 1 4 6
v 1 4 5
v 2 0 8
v 2 0 7
v 2 0 -2
v 2 0 -5
v 2 0 -6
v 2 1 8
v 2 1 7
v 2 2 -1
v 2 2 -2
v 2 2 -4
v 2 2 -5
v 2 2 -6
v 2 3 8
v 2 3 7
v 2 3 -1
v 2 3 -2
v 2 3 -4
v 2 5 8
v 2 5 7
v 3 0 7
v 3 0 3
v 3 1 8
v 3 1 7
v 3 2 3
v 3 2 2
v 3 3 8
v 3 3 7
v 3 4 3
v 3 4 2
v 3 5 7
v 3 5 3
v 5 1 5
v 5 1 3
v 5 2 5
v 5 2 3
v 7 0 5
v 7 0 -3
v 7 1 5
v 7 1 -3
v 7 2 5
v 7 2 -0
v 7 2 -1
v 7 2 -3
v 7 3 5
v 7 3 -0
v 7 3 -1
v 7 3 -3
v -3 1 8
v -3 3 8
v -2 0 8
v -2 1 8
v -2 3 8
v -2 5 8
v -1 0 8
v -1 1 8
v -1 5 8
v 1 0 8
v 1 1 8
v 1 5 8
v 2 0 8
v 2 1 8
v 2 3 8
v 2 5 8
v 3 1 8
v 3 3 8
v -3 0 7
v -3 1 7
v -3 3 7
v -3 5 7
v -2 0 7
v -2 1 7
v -2 3 7
v -2 5 7
v -1 0 7
v -1 1 7
v 1 0 7
v 1 1 7
v 2 0 7
v 2 1 7
v 2 3 7
v 2 5 7
v 3 0 7
v 3 1 7
v 3 3 7
v 3 5 7
v -1 1 6
v -1 4 6
v 1 1 6
v 1 4 6
v -7 0 5
v -7 1 5
v -7 2 5
v -7 3 5
v -6 0 5
v -6 1 5
v -6 2 5
v -6 3 5
v -5 0 5
v -5 1 5
v -5 2 5
v -5 3 5
v -4 0 5
v -4 1 5
v -4 2 5
v -4 3 5
v 4 0 5
v 4 1 5
v 4 2 5
v 4 3 5
v 5 0 5
v 5 1 5
v 5 2 5
v 5 3 5
v 6 0 5
v 6 1 5
v 6 2 5
v 6 3 5
v 7 0 5
v 7 1 5
v 7 2 5
v 7 3 5
v -6 1 3
v -6 2 3
v -5 1 3
v -5 2 3
v -4 0 3
v -4 1 3
v -4 2 3
v -3 0 3
v -3 2 3
v 3 0 3
v 3 2 3
v 4 0 3
v 4 1 3
v 4 2 3
v 5 1 3
v 5 2 3
v 6 1 3
v 6 2 3
v -4 1 1
v -4 2 1
v -2 1 1
v -2 2 1
v 2 1 1
v 2 2 1
v 4 1 1
v 4 2 1
v -4 2 -0
v -4 3 -0
v -2 2 -0
v -2 3 -0
v 2 2 -0
v 2 3 -0
v 4 2 -0
v 4 3 -0
v -2 1 -1
v -2 3 -1
v -1 1 -1
v -1 3 -1
v 1 1 -1
v 1 3 -1
v 2 1 -1
v 2 3 -1
v -1 1 -2
v -1 3 -2
v 1 1 -2
v 1 3 -2
v -2 1 7
v -2 5 7
v -1 1 7
v -1 5 7
v 1 1 7
v 1 5 7
v 2 1 7
v 2 5 7
v -1 2 5
v -1 4 5
v 1 2 5
v 1 4 5
v -1 1 4
v -1 2 4
v 1 1 4
v 1 2 4
v -3 4 3
v -3 5 3
v -2 4 3
v -2 5 3
v 2 4 3
v 2 5 3
v 3 4 3
v 3 5 3
v -4 1 2
v -4 2 2
v -3 2 2
v -3 4 2
v -2 1 2
v -2 4 2
v 2 1 2
v 2 4 2
v 3 2 2
v 3 4 2
v 4 1 2
v 4 2 2
v -4 2 -1
v -4 3 -1
v -3 2 -1
v -2 2 -1
v -2 3 -1
v 2 2 -1
v 2 3 -1
v 3 2 -1
v 4 2 -1
v 4 3 -1
v -4 0 -2
v -4 1 -2
v -4 2 -2
v -3 0 -2
v -3 2 -2
v -2 0 -2
v -2 2 -2
v 2 0 -2
v 2 2 -2
v 3 0 -2
v 3 2 -2
v 4 0 -2
v 4 1 -2
v 4 2 -2
v -7 0 -3
v -7 1 -3
v -7 2 -3
v -7 3 -3
v -6 0 -3
v -6 1 -3
v -6 2 -3
v -6 3 -3
v -5 0 -3
v -5 1 -3
v -5 2 -3
v -5 3 -3
v -4 0 -3
v -4 1 -3
v -4 2 -3
v -4 3 -3
v 4 0 -3
v 4 1 -3
v 4 2 -3
v 4 3 -3
v 5 0 -3
v 5 1 -3
v 5 2 -3
v 5 3 -3
v 6 0 -3
v 6 1 -3
v 6 2 -3
v 6 3 -3
v 7 0 -3
v 7 1 -3
v 7 2 -3
v 7 3 -3
v -2 2 -4
v -2 3 -4
v -1 2 -4
v -1 3 -4
v 1 2 -4
v 1 3 -4
v 2 2 -4
v 2 3 -4
v -2 0 -6
v -2 2 -6
v -1 0 -6
v -1 2 -6
v -1 3 -6
v 1 0 -6
v 1 2 -6
v 1 3 -6
v 2 0 -6
v 2 2 -6
v -1 0 -8
v -1 2 -8
v 1 0 -8
v 1 2 -8
v -2 0 8
v -1 0 8
v 1 0 8
v 2 0 8
v -3 0 7
v -2 0 7
v -1 0 7
v 1 0 7
v 2 0 7
v 3 0 7
v -7 0 5
v -6 0 5
v -5 0 5
v -4 0 5
v 4 0 5
v 5 0 5
v 6 0 5
v 7 0 5
v -4 0 3
v -3 0 3
v 3 0 3
v 4 0 3
v -3 0 -1
v -2 0 -1
v 2 0 -1
v 3 0 -1
v -4 0 -2
v -3 0 -2
v -2 0 -2
v 2 0 -2
v 3 0 -2
v 4 0 -2
v -7 0 -3
v -6 0 -3
v -5 0 -3
v -4 0 -3
v 4 0 -3
v 5 0 -3
v 6 0 -3
v 7 0 -3
v -2 0 -5
v -1 0 -5
v 1 0 -5
v 2 0 -5
v -2 0 -6
v -1 0 -6
v 1 0 -6
v 2 0 -6
v -1 0 -7
v 1 0 -7
v -1 0 -8
v 1 0 -8
v -3 1 8
v -2 1 8
v -1 1 8
v 1 1 8
v 2 1 8
v 3 1 8
v -3 1 7
v -2 1 7
v -1 1 7
v 1 1 7
v 2 1 7
v 3 1 7
v -6 2 5
v -5 2 5
v 5 2 5
v 6 2 5
v -6 2 3
v -5 2 3
v 5 2 3
v 6 2 3
v -2 1 7
v -1 1 7
v 1 1 7
v 2 1 7
v -1 1 6
v 1 1 6
v -6 1 5
v -5 1 5
v 5 1 5
v 6 1 5
v -1 1 4
v 1 1 4
v -6 1 3
v -5 1 3
v 5 1 3
v 6 1 3
v -4 1 2
v -2 1 2
v 2 1 2
v 4 1 2
v -4 1 1
v -2 1 1
v 2 1 1
v 4 1 1
v -2 1 -1
v -1 1 -1
v 1 1 -1
v 2 1 -1
v -1 1 -2
v 1 1 -2
v -1 2 5
v 1 2 5
v -1 2 4
v 1 2 4
v -4 2 3
v -3 2 3
v 3 2 3
v 4 2 3
v -4 2 2
v -3 2 2
v 3 2 2
v 4 2 2
v -4 2 1
v -2 2 1
v 2 2 1
v 4 2 1
v -4 2 -0
v -2 2 -0
v 2 2 -0
v 4 2 -0
v -4 2 -1
v -3 2 -1
v -2 2 -1
v 2 2 -1
v 3 2 -1
v 4 2 -1
v -4 2 -2
v -3 2 -2
v -2 2 -2
v 2 2 -2
v 3 2 -2
v 4 2 -2
v -2 2 -4
v -1 2 -4
v 1 2 -4
v 2 2 -4
v -2 2 -5
v -1 2 -5
v 1 2 -5
v 2 2 -5
v -2 2 -6
v -1 2 -6
v 1 2 -6
v 2 2 -6
v -1 2 -7
v 1 2 -7
v -1 2 -8
v 1 2 -8
v -3 3 8
v -2 3 8
v 2 3 8
v 3 3 8
v -3 3 7
v -2 3 7
v 2 3 7
v 3 3 7
v -7 3 5
v -6 3 5
v -5 3 5
v -4 3 5
v 4 3 5
v 5 3 5
v 6 3 5
v 7 3 5
v -7 3 -0
v -6 3 -0
v -5 3 -0
v -4 3 -0
v -2 3 -0
v 2 3 -0
v 4 3 -0
v 5 3 -0
v 6 3 -0
v 7 3 -0
v -7 3 -1
v -6 3 -1
v -5 3 -1
v -4 3 -1
v -2 3 -1
v -1 3 -1
v 1 3 -1
v 2 3 -1
v 4 3 -1
v 5 3 -1
v 6 3 -1
v 7 3 -1
v -2 3 -2
v -1 3 -2
v 1 3 -2
v 2 3 -2
v -7 3 -3
v -6 3 -3
v -5 3 -3
v -4 3 -3
v 4 3 -3
v 5 3 -3
v 6 3 -3
v 7 3 -3
v -2 3 -4
v -1 3 -4
v 1 3 -4
v 2 3 -4
v -1 3 -6
v 1 3 -6
v -1 4 6
v 1 4 6
v -1 4 5
v 1 4 5
v -3 4 3
v -2 4 3
v 2 4 3
v 3 4 3
v -3 4 2
v -2 4 2
v 2 4 2
v 3 4 2
v -2 5 8
v -1 5 8
v 1 5 8
v 2 5 8
v -3 5 7
v -2 5 7
v -1 5 7
v 1 5 7
v 2 5 7
v 3 5 7
v -3 5 3
v -2 5 3
v 2 5 3
v 3 5 3

# faces
f 3/3/1 2/3/1 1/3/1
f 4/3/1 2/3/1 3/3/1
f 5/2/1 4/2/1 3/2/1
f 6/2/1 4/2/1 5/2/1
f 7/2/1 4/2/1 6/2/1
f 8/2/1 4/2/1 7/2/1
f 9/3/1 6/3/1 5/3/1
f 10/2/1 7/2/1 6/2/1
f 10/3/1 6/3/1 9/3/1
f 11/3/1 8/3/1 7/3/1
f 11/2/1 7/2/1 10/2/1
f 12/3/1 8/3/1 11/3/1
f 15/2/1 14/2/1 13/2/1
f 16/2/1 14/2/1 15/2/1
f 20/3/1 18/3/1 17/3/1
f 21/3/1 18/3/1 20/3/1
f 21/3/1 20/3/1 19/3/1
f 23/3/1 21/3/1 19/3/1
f 23/3/1 22/3/1 21/3/1
f 24/3/1 22/3/1 23/3/1
f 25/3/1 22/3/1 24/3/1
f 26/3/1 22/3/1 25/3/1
f 27/3/1 25/3/1 24/3/1
f 28/3/1 25/3/1 27/3/1
f 34/2/1 30/2/1 29/2/1
f 35/2/1 30/2/1 34/2/1
f 37/3/1 32/3/1 31/3/1
f 38/3/1 32/3/1 37/3/1
f 39/2/1 33/2/1 32/2/1
f 39/3/1 32/3/1 38/3/1
f 40/2/1 33/2/1 39/2/1
f 43/3/1 37/3/1 36/3/1
f 44/2/1 38/2/1 37/2/1
f 44/3/1 37/3/1 43/3/1
f 45/2/1 38/2/1 44/2/1
f 46/2/1 42/2/1 41/2/1
f 47/2/1 42/2/1 46/2/1
f 53/2/1 52/2/1 51/2/1
f 54/2/1 52/2/1 53/2/1
f 57/3/1 49/3/1 48/3/1
f 58/2/1 50/2/1 49/2/1
f 58/3/1 49/3/1 57/3/1
f 59/2/1 50/2/1 58/2/1
f 60/3/1 56/3/1 55/3/1
f 60/3/1 57/3/1 56/3/1
f 61/3/1 57/3/1 60/3/1
f 62/2/1 53/2/1 51/2/1
f 63/2/1 53/2/1 62/2/1
f 66/2/1 65/2/1 64/2/1
f 67/2/1 65/2/1 66/2/1
f 70/3/1 69/3/1 68/3/1
f 71/3/1 69/3/1 70/3/1
f 76/3/1 75/3/1 74/3/1
f 77/3/1 75/3/1 76/3/1
f 78/3/1 75/3/1 77/3/1
f 79/3/1 75/3/1 78/3/1
f 80/3/1 73/3/1 72/3/1
f 81/3/1 73/3/1 80/3/1
f 82/3/1 80/3/1 72/3/1
f 83/3/1 80/3/1 82/3/1
f 88/3/1 85/3/1 84/3/1
f 89/3/1 85/3/1 88/3/1
f 92/3/1 87/3/1 86/3/1
f 93/3/1 87/3/1 92/3/1
f 94/2/1 89/2/1 88/2/1
f 95/2/1 89/2/1 94/2/1
f 96/3/1 91/3/1 90/3/1
f 97/3/1 91/3/1 96/3/1
f 100/2/1 93/2/1 92/2/1
f 101/2/1 93/2/1 100/2/1
f 102/3/1 95/3/1 94/3/1
f 102/3/1 98/3/1 97/3/1
f 102/3/1 96/3/1 95/3/1
f 102/3/1 97/3/1 96/3/1
f 103/3/1 98/3/1 102/3/1
f 104/3/1 101/3/1 100/3/1
f 104/3/1 100/3/1 99/3/1
f 105/3/1 101/3/1 104/3/1
f 108/2/1 107/2/1 106/2/1
f 109/2/1 107/2/1 108/2/1
f 110/2/2 111/2/2 112/2/2
f 112/2/2 111/2/2 113/2/2
f 114/3/2 115/3/2 118/3/2
f 118/3/2 115/3/2 119/3/2
f 116/3/2 117/3/2 122/3/2
f 122/3/2 117/3/2 123/3/2
f 118/2/2 119/2/2 124/2/2
f 124/2/2 119/2/2 125/2/2
f 120/3/2 121/3/2 126/3/2
f 126/3/2 121/3/2 127/3/2
f 122/2/2 123/2/2 130/2/2
f 130/2/2 123/2/2 131/2/2
f 124/3/2 125/3/2 132/3/2
f 127/3/2 128/3/2 132/3/2
f 125/3/2 126/3/2 132/3/2
f 126/3/2 127/3/2 132/3/2
f 132/3/2 128/3/2 133/3/2
f 130/3/2 131/3/2 134/3/2
f 129/3/2 130/3/2 134/3/2
f 134/3/2 131/3/2 135/3/2
f 138/3/2 139/3/2 140/3/2
f 140/3/2 139/3/2 141/3/2
f 141/3/2 139/3/2 142/3/2
f 142/3/2 139/3/2 143/3/2
f 136/3/2 137/3/2 144/3/2
f 144/3/2 137/3/2 145/3/2
f 136/3/2 144/3/2 146/3/2
f 146/3/2 144/3/2 147/3/2
f 148/2/2 149/2/2 150/2/2
f 150/2/2 149/2/2 151/2/2
f 152/3/2 153/3/2 154/3/2
f 154/3/2 153/3/2 155/3/2
f 159/2/2 160/2/2 161/2/2
f 161/2/2 160/2/2 162/2/2
f 156/3/2 157/3/2 165/3/2
f 157/2/2 158/2/2 166/2/2
f 165/3/2 157/3/2 166/3/2
f 166/2/2 158/2/2 167/2/2
f 163/3/2 164/3/2 168/3/2
f 164/3/2 165/3/2 168/3/2
f 168/3/2 165/3/2 169/3/2
f 159/2/2 161/2/2 170/2/2
f 170/2/2 161/2/2 171/2/2
f 172/2/2 173/2/2 177/2/2
f 177/2/2 173/2/2 178/2/2
f 174/3/2 175/3/2 180/3/2
f 180/3/2 175/3/2 181/3/2
f 175/2/2 176/2/2 182/2/2
f 181/3/2 175/3/2 182/3/2
f 182/2/2 176/2/2 183/2/2
f 179/3/2 180/3/2 186/3/2
f 180/2/2 181/2/2 187/2/2
f 186/3/2 180/3/2 187/3/2
f 187/2/2 181/2/2 188/2/2
f 184/2/2 185/2/2 189/2/2
f 189/2/2 185/2/2 190/2/2
f 191/3/2 192/3/2 194/3/2
f 194/3/2 192/3/2 195/3/2
f 193/3/2 194/3/2 195/3/2
f 193/3/2 195/3/2 197/3/2
f 195/3/2 196/3/2 197/3/2
f 197/3/2 196/3/2 198/3/2
f 198/3/2 196/3/2 199/3/2
f 199/3/2 196/3/2 200/3/2
f 198/3/2 199/3/2 201/3/2
f 201/3/2 199/3/2 202/3/2
f 203/2/2 204/2/2 205/2/2
f 205/2/2 204/2/2 206/2/2
f 207/3/2 208/3/2 209/3/2
f 209/3/2 208/3/2 210/3/2
f 209/2/2 210/2/2 211/2/2
f 211/2/2 210/2/2 212/2/2
f 212/2/2 210/2/2 213/2/2
f 213/2/2 210/2/2 214/2/2
f 211/3/2 212/3/2 215/3/2
f 212/2/2 213/2/2 216/2/2
f 215/3/2 212/3/2 216/3/2
f 213/3/2 214/3/2 217/3/2
f 216/2/2 213/2/2 217/2/2
f 217/3/2 214/3/2 218/3/2
f 222/3/3 220/3/3 219/3/3
f 223/3/3 220/3/3 222/3/3
f 225/2/3 222/2/3 221/2/3
f 225/2/3 224/2/3 223/2/3
f 225/2/3 223/2/3 222/2/3
f 226/2/3 224/2/3 225/2/3
f 227/2/3 224/2/3 226/2/3
f 229/3/3 227/3/3 226/3/3
f 230/3/3 227/3/3 229/3/3
f 231/2/3 229/2/3 228/2/3
f 231/2/3 230/2/3 229/2/3
f 232/2/3 230/2/3 231/2/3
f 233/2/3 230/2/3 232/2/3
f 234/2/3 230/2/3 233/2/3
f 235/3/3 233/3/3 232/3/3
f 236/3/3 233/3/3 235/3/3
f 241/3/3 238/3/3 237/3/3
f 242/3/3 238/3/3 241/3/3
f 243/3/3 240/3/3 239/3/3
f 244/3/3 240/3/3 243/3/3
f 247/3/3 246/3/3 245/3/3
f 248/3/3 246/3/3 247/3/3
f 253/3/3 250/3/3 249/3/3
f 254/3/3 250/3/3 253/3/3
f 255/3/3 252/3/3 251/3/3
f 256/3/3 252/3/3 255/3/3
f 259/2/3 258/2/3 257/2/3
f 260/2/3 258/2/3 259/2/3
f 265/3/3 262/3/3 261/3/3
f 266/2/3 263/2/3 262/2/3
f 266/3/3 262/3/3 265/3/3
f 267/3/3 264/3/3 263/3/3
f 267/2/3 263/2/3 266/2/3
f 268/3/3 264/3/3 267/3/3
f 269/2/3 266/2/3 265/2/3
f 270/2/3 266/2/3 269/2/3
f 271/2/3 268/2/3 267/2/3
f 272/2/3 268/2/3 271/2/3
f 273/3/3 270/3/3 269/3/3
f 274/2/3 271/2/3 270/2/3
f 274/3/3 270/3/3 273/3/3
f 275/3/3 272/3/3 271/3/3
f 275/2/3 271/2/3 274/2/3
f 276/3/3 272/3/3 275/3/3
f 281/3/3 278/3/3 277/3/3
f 282/2/3 279/2/3 278/2/3
f 282/3/3 278/3/3 281/3/3
f 283/3/3 280/3/3 279/3/3
f 283/2/3 279/2/3 282/2/3
f 284/3/3 280/3/3 283/3/3
f 285/2/3 282/2/3 281/2/3
f 286/2/3 282/2/3 285/2/3
f 287/2/3 284/2/3 283/2/3
f 288/2/3 284/2/3 287/2/3
f 289/3/3 286/3/3 285/3/3
f 290/2/3 287/2/3 286/2/3
f 290/3/3 286/3/3 289/3/3
f 291/3/3 288/3/3 287/3/3
f 291/2/3 287/2/3 290/2/3
f 292/3/3 288/3/3 291/3/3
f 295/1/3 294/1/3 293/1/3
f 296/1/3 294/1/3 295/1/3
f 300/3/3 298/3/3 297/3/3
f 300/3/3 299/3/3 298/3/3
f 301/3/3 299/3/3 300/3/3
f 304/3/3 303/3/3 302/3/3
f 305/3/3 303/3/3 304/3/3
f 306/3/3 303/3/3 305/3/3
f 309/1/3 308/1/3 307/1/3
f 310/1/3 308/1/3 309/1/3
f 313/3/3 312/3/3 311/3/3
f 314/3/3 312/3/3 313/3/3
f 317/3/3 316/3/3 315/3/3
f 318/3/3 316/3/3 317/3/3
f 321/3/3 320/3/3 319/3/3
f 322/3/3 320/3/3 321/3/3
f 325/3/3 324/3/3 323/3/3
f 326/3/3 324/3/3 325/3/3
f 329/3/3 328/3/3 327/3/3
f 330/3/3 328/3/3 329/3/3
f 333/3/3 332/3/3 331/3/3
f 334/3/3 332/3/3 333/3/3
f 337/3/3 336/3/3 335/3/3
f 338/3/3 336/3/3 337/3/3
f 339/2/4 340/2/4 341/2/4
f 341/2/4 340/2/4 342/2/4
f 341/3/4 342/3/4 343/3/4
f 343/3/4 342/3/4 344/3/4
f 343/2/4 344/2/4 345/2/4
f 345/2/4 344/2/4 346/2/4
f 347/2/4 348/2/4 349/2/4
f 349/2/4 348/2/4 350/2/4
f 351/2/4 352/2/4 353/2/4
f 353/2/4 352/2/4 354/2/4
f 355/3/4 356/3/4 357/3/4
f 357/3/4 356/3/4 358/3/4
f 359/3/4 360/3/4 361/3/4
f 361/3/4 360/3/4 362/3/4
f 363/3/4 364/3/4 365/3/4
f 363/3/4 365/3/4 367/3/4
f 365/3/4 366/3/4 367/3/4
f 367/3/4 366/3/4 368/3/4
f 369/3/4 370/3/4 371/3/4
f 371/3/4 370/3/4 372/3/4
f 369/3/4 371/3/4 373/3/4
f 373/3/4 371/3/4 374/3/4
f 375/3/4 376/3/4 377/3/4
f 377/3/4 376/3/4 378/3/4
f 378/3/4 376/3/4 379/3/4
f 380/3/4 381/3/4 382/3/4
f 382/3/4 381/3/4 383/3/4
f 383/3/4 381/3/4 384/3/4
f 385/3/4 386/3/4 388/3/4
f 386/3/4 387/3/4 388/3/4
f 388/3/4 387/3/4 389/3/4
f 388/2/4 389/2/4 390/2/4
f 390/2/4 389/2/4 391/2/4
f 392/2/4 393/2/4 394/2/4
f 394/2/4 393/2/4 395/2/4
f 394/3/4 395/3/4 396/3/4
f 396/3/4 395/3/4 397/3/4
f 397/3/4 395/3/4 398/3/4
f 399/3/4 400/3/4 403/3/4
f 400/2/4 401/2/4 404/2/4
f 403/3/4 400/3/4 404/3/4
f 401/3/4 402/3/4 405/3/4
f 404/2/4 401/2/4 405/2/4
f 405/3/4 402/3/4 406/3/4
f 403/2/4 404/2/4 407/2/4
f 404/2/4 405/2/4 407/2/4
f 405/2/4 406/2/4 407/2/4
f 407/2/4 406/2/4 408/2/4
f 408/2/4 406/2/4 409/2/4
f 409/2/4 406/2/4 410/2/4
f 407/3/4 408/3/4 411/3/4
f 408/2/4 409/2/4 412/2/4
f 411/3/4 408/3/4 412/3/4
f 409/3/4 410/3/4 413/3/4
f 412/2/4 409/2/4 413/2/4
f 413/3/4 410/3/4 414/3/4
f 415/3/4 416/3/4 419/3/4
f 416/2/4 417/2/4 420/2/4
f 419/3/4 416/3/4 420/3/4
f 417/3/4 418/3/4 421/3/4
f 420/2/4 417/2/4 421/2/4
f 421/3/4 418/3/4 422/3/4
f 419/2/4 420/2/4 423/2/4
f 420/2/4 421/2/4 423/2/4
f 421/2/4 422/2/4 423/2/4
f 423/2/4 422/2/4 424/2/4
f 424/2/4 422/2/4 425/2/4
f 425/2/4 422/2/4 426/2/4
f 423/3/4 424/3/4 427/3/4
f 424/2/4 425/2/4 428/2/4
f 427/3/4 424/3/4 428/3/4
f 425/3/4 426/3/4 429/3/4
f 428/2/4 425/2/4 429/2/4
f 429/3/4 426/3/4 430/3/4
f 431/2/4 432/2/4 433/2/4
f 433/2/4 432/2/4 434/2/4
f 435/2/4 436/2/4 437/2/4
f 437/2/4 436/2/4 438/2/4
f 439/2/4 440/2/4 441/2/4
f 441/2/4 440/2/4 442/2/4
f 442/3/4 443/3/4 445/3/4
f 445/3/4 443/3/4 446/3/4
f 444/2/4 445/2/4 447/2/4
f 447/2/4 445/2/4 448/2/4
f 449/2/4 450/2/4 451/2/4
f 451/2/4 450/2/4 452/2/4
f 458/2/5 454/2/5 453/2/5
f 459/2/5 454/2/5 458/2/5
f 460/2/5 456/2/5 455/2/5
f 461/2/5 456/2/5 460/2/5
f 471/3/5 466/3/5 465/3/5
f 472/3/5 459/3/5 458/3/5
f 472/3/5 458/3/5 457/3/5
f 472/3/5 460/3/5 459/3/5
f 472/3/5 461/3/5 460/3/5
f 472/3/5 462/3/5 461/3/5
f 473/3/5 462/3/5 472/3/5
f 474/3/5 468/3/5 467/3/5
f 475/3/5 473/3/5 472/3/5
f 475/3/5 474/3/5 473/3/5
f 475/3/5 472/3/5 471/3/5
f 476/3/5 474/3/5 475/3/5
f 477/3/5 474/3/5 476/3/5
f 478/3/5 474/3/5 477/3/5
f 479/3/5 471/3/5 465/3/5
f 479/3/5 475/3/5 471/3/5
f 480/2/5 476/2/5 475/2/5
f 480/3/5 475/3/5 479/3/5
f 481/3/5 477/3/5 476/3/5
f 481/2/5 476/2/5 480/2/5
f 482/2/5 478/2/5 477/2/5
f 482/3/5 477/3/5 481/3/5
f 483/3/5 474/3/5 478/3/5
f 483/2/5 478/2/5 482/2/5
f 484/3/5 468/3/5 474/3/5
f 484/3/5 474/3/5 483/3/5
f 485/3/5 464/3/5 463/3/5
f 486/2/5 465/2/5 464/2/5
f 486/3/5 464/3/5 485/3/5
f 487/3/5 479/3/5 465/3/5
f 487/2/5 465/2/5 486/2/5
f 488/3/5 479/3/5 487/3/5
f 489/3/5 468/3/5 484/3/5
f 490/2/5 469/2/5 468/2/5
f 490/3/5 468/3/5 489/3/5
f 491/3/5 470/3/5 469/3/5
f 491/2/5 469/2/5 490/2/5
f 492/3/5 470/3/5 491/3/5
f 493/3/5 482/3/5 481/3/5
f 494/3/5 482/3/5 493/3/5
f 495/3/5 482/3/5 494/3/5
f 496/3/5 482/3/5 495/3/5
f 497/2/5 494/2/5 493/2/5
f 498/3/5 495/3/5 494/3/5
f 498/2/5 494/2/5 497/2/5
f 499/2/5 496/2/5 495/2/5
f 499/3/5 495/3/5 498/3/5
f 500/2/5 496/2/5 499/2/5
f 501/3/5 499/3/5 498/3/5
f 502/3/5 499/3/5 501/3/5
f 503/2/5 502/2/5 501/2/5
f 504/2/5 502/2/5 503/2/5
f 511/3/5 506/3/5 505/3/5
f 512/3/5 506/3/5 511/3/5
f 513/3/5 508/3/5 507/3/5
f 514/3/5 508/3/5 513/3/5
f 515/3/5 510/3/5 509/3/5
f 516/3/5 510/3/5 515/3/5
f 521/2/5 518/2/5 517/2/5
f 522/2/5 518/2/5 521/2/5
f 523/2/5 520/2/5 519/2/5
f 524/2/5 520/2/5 523/2/5
f 525/3/6 526/3/6 529/3/6
f 527/3/6 528/3/6 529/3/6
f 526/3/6 527/3/6 529/3/6
f 529/3/6 528/3/6 530/3/6
f 525/3/6 529/3/6 535/3/6
f 530/3/6 528/3/6 536/3/6
f 531/2/6 532/2/6 537/2/6
f 537/2/6 532/2/6 538/2/6
f 533/2/6 534/2/6 539/2/6
f 539/2/6 534/2/6 540/2/6
f 525/3/6 535/3/6 542/3/6
f 535/3/6 536/3/6 542/3/6
f 536/3/6 528/3/6 543/3/6
f 542/3/6 536/3/6 543/3/6
f 541/3/6 542/3/6 545/3/6
f 543/3/6 544/3/6 545/3/6
f 542/3/6 543/3/6 545/3/6
f 545/3/6 544/3/6 546/3/6
f 546/3/6 544/3/6 547/3/6
f 547/3/6 544/3/6 548/3/6
f 546/3/6 547/3/6 549/3/6
f 549/3/6 547/3/6 550/3/6
f 550/3/6 547/3/6 551/3/6
f 551/3/6 547/3/6 552/3/6
f 550/3/6 551/3/6 553/3/6
f 553/3/6 551/3/6 554/3/6
f 555/2/6 556/2/6 557/2/6
f 557/2/6 556/2/6 558/2/6
f 559/3/6 560/3/6 563/3/6
f 563/3/6 560/3/6 564/3/6
f 561/3/6 562/3/6 565/3/6
f 565/3/6 562/3/6 566/3/6
f 567/3/6 568/3/6 571/3/6
f 571/3/6 568/3/6 572/3/6
f 569/3/6 570/3/6 573/3/6
f 573/3/6 570/3/6 574/3/6
f 575/3/6 576/3/6 581/3/6
f 576/2/6 577/2/6 582/2/6
f 581/3/6 576/3/6 582/3/6
f 582/2/6 577/2/6 583/2/6
f 578/2/6 579/2/6 584/2/6
f 579/3/6 580/3/6 585/3/6
f 584/2/6 579/2/6 585/2/6
f 585/3/6 580/3/6 586/3/6
f 587/3/6 588/3/6 591/3/6
f 591/3/6 588/3/6 592/3/6
f 589/3/6 590/3/6 593/3/6
f 593/3/6 590/3/6 594/3/6
f 591/2/6 592/2/6 595/2/6
f 595/2/6 592/2/6 596/2/6
f 593/2/6 594/2/6 597/2/6
f 597/2/6 594/2/6 598/2/6
f 596/3/6 597/3/6 599/3/6
f 599/3/6 597/3/6 600/3/6
f 599/2/6 600/2/6 601/2/6
f 601/2/6 600/2/6 602/2/6
f 603/3/6 604/3/6 607/3/6
f 607/3/6 604/3/6 608/3/6
f 605/3/6 606/3/6 609/3/6
f 609/3/6 606/3/6 610/3/6
f 611/3/6 612/3/6 619/3/6
f 612/2/6 613/2/6 620/2/6
f 619/3/6 612/3/6 620/3/6
f 613/3/6 614/3/6 621/3/6
f 620/2/6 613/2/6 621/2/6
f 621/3/6 614/3/6 622/3/6
f 615/3/6 616/3/6 625/3/6
f 616/2/6 617/2/6 626/2/6
f 625/3/6 616/3/6 626/3/6
f 617/3/6 618/3/6 627/3/6
f 626/2/6 617/2/6 627/2/6
f 627/3/6 618/3/6 628/3/6
f 619/2/6 620/2/6 629/2/6
f 620/2/6 621/2/6 629/2/6
f 621/2/6 622/2/6 629/2/6
f 629/2/6 622/2/6 630/2/6
f 630/2/6 622/2/6 631/2/6
f 622/3/6 623/3/6 632/3/6
f 631/2/6 622/2/6 632/2/6
f 632/3/6 623/3/6 633/3/6
f 624/3/6 625/3/6 636/3/6
f 625/2/6 626/2/6 637/2/6
f 627/2/6 628/2/6 637/2/6
f 636/3/6 625/3/6 637/3/6
f 626/2/6 627/2/6 637/2/6
f 637/2/6 628/2/6 638/2/6
f 638/2/6 628/2/6 639/2/6
f 639/2/6 628/2/6 640/2/6
f 633/3/6 634/3/6 641/3/6
f 641/3/6 634/3/6 642/3/6
f 635/3/6 636/3/6 643/3/6
f 643/3/6 636/3/6 644/3/6
f 629/3/6 630/3/6 645/3/6
f 630/2/6 631/2/6 646/2/6
f 645/3/6 630/3/6 646/3/6
f 631/3/6 632/3/6 647/3/6
f 646/2/6 631/2/6 647/2/6
f 647/3/6 632/3/6 648/3/6
f 637/3/6 638/3/6 649/3/6
f 638/2/6 639/2/6 650/2/6
f 649/3/6 638/3/6 650/3/6
f 639/3/6 640/3/6 651/3/6
f 650/2/6 639/2/6 651/2/6
f 651/3/6 640/3/6 652/3/6
f 641/2/6 642/2/6 653/2/6
f 642/3/6 643/3/6 654/3/6
f 653/2/6 642/2/6 654/2/6
f 643/2/6 644/2/6 655/2/6
f 654/3/6 643/3/6 655/3/6
f 655/2/6 644/2/6 656/2/6
f 654/3/6 655/3/6 657/3/6
f 657/3/6 655/3/6 658/3/6
f 659/2/6 660/2/6 661/2/6
f 661/2/6 660/2/6 662/2/6
f 663/3/6 664/3/6 667/3/6
f 667/3/6 664/3/6 668/3/6
f 665/3/6 666/3/6 669/3/6
f 669/3/6 666/3/6 670/3/6
f 671/2/6 672/2/6 676/2/6
f 672/3/6 673/3/6 677/3/6
f 676/2/6 672/2/6 677/2/6
f 673/2/6 674/2/6 678/2/6
f 677/3/6 673/3/6 678/3/6
f 678/2/6 674/2/6 679/2/6
f 675/3/6 676/3/6 681/3/6
f 681/3/6 676/3/6 682/3/6
f 679/3/6 680/3/6 683/3/6
f 683/3/6 680/3/6 684/3/6
