# MagicaVoxel @ Ephtracy

# material
mtllib GrabberBody.mtl
usemtl palette

# normals
vn -1 0 0
vn 1 0 0
vn 0 0 1
vn 0 0 -1
vn 0 -1 0
vn 0 1 0

# texcoords
vt 0.705078 0.5
vt 0.931641 0.5
vt 0.935547 0.5

# verts
v -5.5 2 2.5
v -5.5 2 1.5
v -5.5 2 -1.5
v -5.5 2 -2.5
v -5.5 9 2.5
v -5.5 9 1.5
v -5.5 9 -1.5
v -5.5 9 -2.5
v -4.5 2 4.5
v -4.5 2 2.5
v -4.5 2 1.5
v -4.5 2 -1.5
v -4.5 2 -2.5
v -4.5 2 -4.5
v -4.5 9 4.5
v -4.5 9 2.5
v -4.5 9 1.5
v -4.5 9 -1.5
v -4.5 9 -2.5
v -4.5 9 -4.5
v -4.5 10 4.5
v -4.5 10 2.5
v -4.5 10 1.5
v -4.5 10 -1.5
v -4.5 10 -2.5
v -4.5 10 -4.5
v -4.5 14 4.5
v -4.5 14 2.5
v -4.5 14 1.5
v -4.5 14 -1.5
v -4.5 14 -2.5
v -4.5 14 -4.5
v -3.5 9 3.5
v -3.5 9 2.5
v -3.5 9 1.5
v -3.5 9 -1.5
v -3.5 9 -2.5
v -3.5 9 -3.5
v -3.5 10 3.5
v -3.5 10 2.5
v -3.5 10 1.5
v -3.5 10 -1.5
v -3.5 10 -2.5
v -3.5 10 -3.5
v -2.5 2 5.5
v -2.5 2 4.5
v -2.5 2 -4.5
v -2.5 2 -5.5
v -2.5 9 5.5
v -2.5 9 4.5
v -2.5 9 3.5
v -2.5 9 -3.5
v -2.5 9 -4.5
v -2.5 9 -5.5
v -2.5 10 4.5
v -2.5 10 3.5
v -2.5 10 -3.5
v -2.5 10 -4.5
v 1.5 2 5.5
v 1.5 2 4.5
v 1.5 2 -4.5
v 1.5 2 -5.5
v 1.5 9 5.5
v 1.5 9 4.5
v 1.5 9 3.5
v 1.5 9 -3.5
v 1.5 9 -4.5
v 1.5 9 -5.5
v 1.5 10 4.5
v 1.5 10 3.5
v 1.5 10 -3.5
v 1.5 10 -4.5
v 2.5 13 2.5
v 2.5 13 1.5
v 2.5 13 -1.5
v 2.5 13 -2.5
v 2.5 14 2.5
v 2.5 14 1.5
v 2.5 14 -1.5
v 2.5 14 -2.5
v -2.5 13 2.5
v -2.5 13 1.5
v -2.5 13 -1.5
v -2.5 13 -2.5
v -2.5 14 2.5
v -2.5 14 1.5
v -2.5 14 -1.5
v -2.5 14 -2.5
v -1.5 2 5.5
v -1.5 2 4.5
v -1.5 2 -4.5
v -1.5 2 -5.5
v -1.5 9 5.5
v -1.5 9 4.5
v -1.5 9 3.5
v -1.5 9 -3.5
v -1.5 9 -4.5
v -1.5 9 -5.5
v -1.5 10 4.5
v -1.5 10 3.5
v -1.5 10 -3.5
v -1.5 10 -4.5
v 2.5 2 5.5
v 2.5 2 4.5
v 2.5 2 -4.5
v 2.5 2 -5.5
v 2.5 9 5.5
v 2.5 9 4.5
v 2.5 9 3.5
v 2.5 9 -3.5
v 2.5 9 -4.5
v 2.5 9 -5.5
v 2.5 10 4.5
v 2.5 10 3.5
v 2.5 10 -3.5
v 2.5 10 -4.5
v 3.5 9 3.5
v 3.5 9 2.5
v 3.5 9 1.5
v 3.5 9 -1.5
v 3.5 9 -2.5
v 3.5 9 -3.5
v 3.5 10 3.5
v 3.5 10 2.5
v 3.5 10 1.5
v 3.5 10 -1.5
v 3.5 10 -2.5
v 3.5 10 -3.5
v 4.5 2 4.5
v 4.5 2 2.5
v 4.5 2 1.5
v 4.5 2 -1.5
v 4.5 2 -2.5
v 4.5 2 -4.5
v 4.5 9 4.5
v 4.5 9 2.5
v 4.5 9 1.5
v 4.5 9 -1.5
v 4.5 9 -2.5
v 4.5 9 -4.5
v 4.5 10 4.5
v 4.5 10 2.5
v 4.5 10 1.5
v 4.5 10 -1.5
v 4.5 10 -2.5
v 4.5 10 -4.5
v 4.5 14 4.5
v 4.5 14 2.5
v 4.5 14 1.5
v 4.5 14 -1.5
v 4.5 14 -2.5
v 4.5 14 -4.5
v 5.5 2 2.5
v 5.5 2 1.5
v 5.5 2 -1.5
v 5.5 2 -2.5
v 5.5 9 2.5
v 5.5 9 1.5
v 5.5 9 -1.5
v 5.5 9 -2.5
v -2.5 2 5.5
v -2.5 9 5.5
v -1.5 2 5.5
v -1.5 9 5.5
v 1.5 2 5.5
v 1.5 9 5.5
v 2.5 2 5.5
v 2.5 9 5.5
v -4.5 2 4.5
v -4.5 9 4.5
v -4.5 10 4.5
v -4.5 14 4.5
v -2.5 2 4.5
v -2.5 9 4.5
v -2.5 10 4.5
v -2.5 14 4.5
v -1.5 2 4.5
v -1.5 9 4.5
v -1.5 10 4.5
v -1.5 14 4.5
v 1.5 2 4.5
v 1.5 9 4.5
v 1.5 10 4.5
v 1.5 14 4.5
v 2.5 2 4.5
v 2.5 9 4.5
v 2.5 10 4.5
v 2.5 14 4.5
v 4.5 2 4.5
v 4.5 9 4.5
v 4.5 10 4.5
v 4.5 14 4.5
v -3.5 9 3.5
v -3.5 10 3.5
v -2.5 9 3.5
v -2.5 10 3.5
v -1.5 9 3.5
v -1.5 10 3.5
v 1.5 9 3.5
v 1.5 10 3.5
v 2.5 9 3.5
v 2.5 10 3.5
v 3.5 9 3.5
v 3.5 10 3.5
v -5.5 2 2.5
v -5.5 9 2.5
v -4.5 2 2.5
v -4.5 9 2.5
v -4.5 10 2.5
v -3.5 9 2.5
v -3.5 10 2.5
v 3.5 9 2.5
v 3.5 10 2.5
v 4.5 2 2.5
v 4.5 9 2.5
v 4.5 10 2.5
v 5.5 2 2.5
v 5.5 9 2.5
v -5.5 2 -1.5
v -5.5 9 -1.5
v -4.5 2 -1.5
v -4.5 9 -1.5
v -4.5 10 -1.5
v -3.5 9 -1.5
v -3.5 10 -1.5
v 3.5 9 -1.5
v 3.5 10 -1.5
v 4.5 2 -1.5
v 4.5 9 -1.5
v 4.5 10 -1.5
v 5.5 2 -1.5
v 5.5 9 -1.5
v -2.5 13 -2.5
v -2.5 14 -2.5
v -1.5 13 -2.5
v -1.5 14 -2.5
v 1.5 13 -2.5
v 1.5 14 -2.5
v 2.5 13 -2.5
v 2.5 14 -2.5
v -2.5 13 2.5
v -2.5 14 2.5
v -1.5 13 2.5
v -1.5 14 2.5
v 1.5 13 2.5
v 1.5 14 2.5
v 2.5 13 2.5
v 2.5 14 2.5
v -5.5 2 1.5
v -5.5 9 1.5
v -4.5 2 1.5
v -4.5 9 1.5
v -4.5 10 1.5
v -3.5 9 1.5
v -3.5 10 1.5
v 3.5 9 1.5
v 3.5 10 1.5
v 4.5 2 1.5
v 4.5 9 1.5
v 4.5 10 1.5
v 5.5 2 1.5
v 5.5 9 1.5
v -5.5 2 -2.5
v -5.5 9 -2.5
v -4.5 2 -2.5
v -4.5 9 -2.5
v -4.5 10 -2.5
v -3.5 9 -2.5
v -3.5 10 -2.5
v 3.5 9 -2.5
v 3.5 10 -2.5
v 4.5 2 -2.5
v 4.5 9 -2.5
v 4.5 10 -2.5
v 5.5 2 -2.5
v 5.5 9 -2.5
v -3.5 9 -3.5
v -3.5 10 -3.5
v -2.5 9 -3.5
v -2.5 10 -3.5
v -1.5 9 -3.5
v -1.5 10 -3.5
v 1.5 9 -3.5
v 1.5 10 -3.5
v 2.5 9 -3.5
v 2.5 10 -3.5
v 3.5 9 -3.5
v 3.5 10 -3.5
v -4.5 2 -4.5
v -4.5 9 -4.5
v -4.5 10 -4.5
v -4.5 14 -4.5
v -2.5 2 -4.5
v -2.5 9 -4.5
v -2.5 10 -4.5
v -2.5 14 -4.5
v -1.5 2 -4.5
v -1.5 9 -4.5
v -1.5 10 -4.5
v -1.5 14 -4.5
v 1.5 2 -4.5
v 1.5 9 -4.5
v 1.5 10 -4.5
v 1.5 14 -4.5
v 2.5 2 -4.5
v 2.5 9 -4.5
v 2.5 10 -4.5
v 2.5 14 -4.5
v 4.5 2 -4.5
v 4.5 9 -4.5
v 4.5 10 -4.5
v 4.5 14 -4.5
v -2.5 2 -5.5
v -2.5 9 -5.5
v -1.5 2 -5.5
v -1.5 9 -5.5
v 1.5 2 -5.5
v 1.5 9 -5.5
v 2.5 2 -5.5
v 2.5 9 -5.5
v -2.5 2 5.5
v -1.5 2 5.5
v 1.5 2 5.5
v 2.5 2 5.5
v -4.5 2 4.5
v -2.5 2 4.5
v -1.5 2 4.5
v 1.5 2 4.5
v 2.5 2 4.5
v 4.5 2 4.5
v -5.5 2 2.5
v -4.5 2 2.5
v 4.5 2 2.5
v 5.5 2 2.5
v -5.5 2 1.5
v -4.5 2 1.5
v 4.5 2 1.5
v 5.5 2 1.5
v -5.5 2 -1.5
v -4.5 2 -1.5
v 4.5 2 -1.5
v 5.5 2 -1.5
v -5.5 2 -2.5
v -4.5 2 -2.5
v 4.5 2 -2.5
v 5.5 2 -2.5
v -4.5 2 -4.5
v -2.5 2 -4.5
v -1.5 2 -4.5
v 1.5 2 -4.5
v 2.5 2 -4.5
v 4.5 2 -4.5
v -2.5 2 -5.5
v -1.5 2 -5.5
v 1.5 2 -5.5
v 2.5 2 -5.5
v -4.5 10 4.5
v -2.5 10 4.5
v -1.5 10 4.5
v 1.5 10 4.5
v 2.5 10 4.5
v 4.5 10 4.5
v -3.5 10 3.5
v -2.5 10 3.5
v -1.5 10 3.5
v 1.5 10 3.5
v 2.5 10 3.5
v 3.5 10 3.5
v -4.5 10 2.5
v -3.5 10 2.5
v 3.5 10 2.5
v 4.5 10 2.5
v -4.5 10 1.5
v -3.5 10 1.5
v 3.5 10 1.5
v 4.5 10 1.5
v -4.5 10 -1.5
v -3.5 10 -1.5
v 3.5 10 -1.5
v 4.5 10 -1.5
v -4.5 10 -2.5
v -3.5 10 -2.5
v 3.5 10 -2.5
v 4.5 10 -2.5
v -3.5 10 -3.5
v -2.5 10 -3.5
v -1.5 10 -3.5
v 1.5 10 -3.5
v 2.5 10 -3.5
v 3.5 10 -3.5
v -4.5 10 -4.5
v -2.5 10 -4.5
v -1.5 10 -4.5
v 1.5 10 -4.5
v 2.5 10 -4.5
v 4.5 10 -4.5
v -2.5 9 5.5
v -1.5 9 5.5
v 1.5 9 5.5
v 2.5 9 5.5
v -4.5 9 4.5
v -2.5 9 4.5
v -1.5 9 4.5
v 1.5 9 4.5
v 2.5 9 4.5
v 4.5 9 4.5
v -3.5 9 3.5
v -2.5 9 3.5
v -1.5 9 3.5
v 1.5 9 3.5
v 2.5 9 3.5
v 3.5 9 3.5
v -5.5 9 2.5
v -4.5 9 2.5
v -3.5 9 2.5
v 3.5 9 2.5
v 4.5 9 2.5
v 5.5 9 2.5
v -5.5 9 1.5
v -4.5 9 1.5
v -3.5 9 1.5
v 3.5 9 1.5
v 4.5 9 1.5
v 5.5 9 1.5
v -5.5 9 -1.5
v -4.5 9 -1.5
v -3.5 9 -1.5
v 3.5 9 -1.5
v 4.5 9 -1.5
v 5.5 9 -1.5
v -5.5 9 -2.5
v -4.5 9 -2.5
v -3.5 9 -2.5
v 3.5 9 -2.5
v 4.5 9 -2.5
v 5.5 9 -2.5
v -3.5 9 -3.5
v -2.5 9 -3.5
v -1.5 9 -3.5
v 1.5 9 -3.5
v 2.5 9 -3.5
v 3.5 9 -3.5
v -4.5 9 -4.5
v -2.5 9 -4.5
v -1.5 9 -4.5
v 1.5 9 -4.5
v 2.5 9 -4.5
v 4.5 9 -4.5
v -2.5 9 -5.5
v -1.5 9 -5.5
v 1.5 9 -5.5
v 2.5 9 -5.5
v -2.5 13 2.5
v -1.5 13 2.5
v 1.5 13 2.5
v 2.5 13 2.5
v -2.5 13 1.5
v 2.5 13 1.5
v -2.5 13 -1.5
v 2.5 13 -1.5
v -2.5 13 -2.5
v -1.5 13 -2.5
v 1.5 13 -2.5
v 2.5 13 -2.5
v -4.5 14 4.5
v -2.5 14 4.5
v -1.5 14 4.5
v 1.5 14 4.5
v 2.5 14 4.5
v 4.5 14 4.5
v -4.5 14 2.5
v -2.5 14 2.5
v -1.5 14 2.5
v 1.5 14 2.5
v 2.5 14 2.5
v 4.5 14 2.5
v -4.5 14 1.5
v -2.5 14 1.5
v 2.5 14 1.5
v 4.5 14 1.5
v -4.5 14 -1.5
v -2.5 14 -1.5
v 2.5 14 -1.5
v 4.5 14 -1.5
v -4.5 14 -2.5
v -2.5 14 -2.5
v -1.5 14 -2.5
v 1.5 14 -2.5
v 2.5 14 -2.5
v 4.5 14 -2.5
v -4.5 14 -4.5
v -2.5 14 -4.5
v -1.5 14 -4.5
v 1.5 14 -4.5
v 2.5 14 -4.5
v 4.5 14 -4.5

# faces
f 5/3/1 2/3/1 1/3/1
f 6/3/1 2/3/1 5/3/1
f 7/3/1 4/3/1 3/3/1
f 8/3/1 4/3/1 7/3/1
f 15/2/1 10/2/1 9/2/1
f 16/2/1 10/2/1 15/2/1
f 17/2/1 12/2/1 11/2/1
f 18/2/1 12/2/1 17/2/1
f 19/2/1 14/2/1 13/2/1
f 20/2/1 14/2/1 19/2/1
f 22/3/1 17/3/1 16/3/1
f 23/3/1 17/3/1 22/3/1
f 24/3/1 19/3/1 18/3/1
f 25/3/1 19/3/1 24/3/1
f 27/2/1 22/2/1 21/2/1
f 28/3/1 23/3/1 22/3/1
f 28/2/1 22/2/1 27/2/1
f 29/2/1 24/2/1 23/2/1
f 29/3/1 23/3/1 28/3/1
f 30/3/1 25/3/1 24/3/1
f 30/2/1 24/2/1 29/2/1
f 31/2/1 26/2/1 25/2/1
f 31/3/1 25/3/1 30/3/1
f 32/2/1 26/2/1 31/2/1
f 39/3/1 34/3/1 33/3/1
f 40/3/1 34/3/1 39/3/1
f 41/3/1 36/3/1 35/3/1
f 42/3/1 36/3/1 41/3/1
f 43/3/1 38/3/1 37/3/1
f 44/3/1 38/3/1 43/3/1
f 49/3/1 46/3/1 45/3/1
f 50/3/1 46/3/1 49/3/1
f 53/3/1 48/3/1 47/3/1
f 54/3/1 48/3/1 53/3/1
f 55/3/1 51/3/1 50/3/1
f 56/3/1 51/3/1 55/3/1
f 57/3/1 53/3/1 52/3/1
f 58/3/1 53/3/1 57/3/1
f 63/3/1 60/3/1 59/3/1
f 64/3/1 60/3/1 63/3/1
f 67/3/1 62/3/1 61/3/1
f 68/3/1 62/3/1 67/3/1
f 69/3/1 65/3/1 64/3/1
f 70/3/1 65/3/1 69/3/1
f 71/3/1 67/3/1 66/3/1
f 72/3/1 67/3/1 71/3/1
f 77/3/1 74/3/1 73/3/1
f 78/2/1 75/2/1 74/2/1
f 78/3/1 74/3/1 77/3/1
f 79/3/1 76/3/1 75/3/1
f 79/2/1 75/2/1 78/2/1
f 80/3/1 76/3/1 79/3/1
f 81/3/2 82/3/2 85/3/2
f 82/2/2 83/2/2 86/2/2
f 85/3/2 82/3/2 86/3/2
f 83/3/2 84/3/2 87/3/2
f 86/2/2 83/2/2 87/2/2
f 87/3/2 84/3/2 88/3/2
f 89/3/2 90/3/2 93/3/2
f 93/3/2 90/3/2 94/3/2
f 91/3/2 92/3/2 97/3/2
f 97/3/2 92/3/2 98/3/2
f 94/3/2 95/3/2 99/3/2
f 99/3/2 95/3/2 100/3/2
f 96/3/2 97/3/2 101/3/2
f 101/3/2 97/3/2 102/3/2
f 103/3/2 104/3/2 107/3/2
f 107/3/2 104/3/2 108/3/2
f 105/3/2 106/3/2 111/3/2
f 111/3/2 106/3/2 112/3/2
f 108/3/2 109/3/2 113/3/2
f 113/3/2 109/3/2 114/3/2
f 110/3/2 111/3/2 115/3/2
f 115/3/2 111/3/2 116/3/2
f 117/3/2 118/3/2 123/3/2
f 123/3/2 118/3/2 124/3/2
f 119/3/2 120/3/2 125/3/2
f 125/3/2 120/3/2 126/3/2
f 121/3/2 122/3/2 127/3/2
f 127/3/2 122/3/2 128/3/2
f 129/2/2 130/2/2 135/2/2
f 135/2/2 130/2/2 136/2/2
f 131/2/2 132/2/2 137/2/2
f 137/2/2 132/2/2 138/2/2
f 133/2/2 134/2/2 139/2/2
f 139/2/2 134/2/2 140/2/2
f 136/3/2 137/3/2 142/3/2
f 142/3/2 137/3/2 143/3/2
f 138/3/2 139/3/2 144/3/2
f 144/3/2 139/3/2 145/3/2
f 141/2/2 142/2/2 147/2/2
f 142/3/2 143/3/2 148/3/2
f 147/2/2 142/2/2 148/2/2
f 143/2/2 144/2/2 149/2/2
f 148/3/2 143/3/2 149/3/2
f 144/3/2 145/3/2 150/3/2
f 149/2/2 144/2/2 150/2/2
f 145/2/2 146/2/2 151/2/2
f 150/3/2 145/3/2 151/3/2
f 151/2/2 146/2/2 152/2/2
f 153/3/2 154/3/2 157/3/2
f 157/3/2 154/3/2 158/3/2
f 155/3/2 156/3/2 159/3/2
f 159/3/2 156/3/2 160/3/2
f 163/3/3 162/3/3 161/3/3
f 164/3/3 162/3/3 163/3/3
f 167/3/3 166/3/3 165/3/3
f 168/3/3 166/3/3 167/3/3
f 173/2/3 170/2/3 169/2/3
f 174/2/3 170/2/3 173/2/3
f 175/2/3 172/2/3 171/2/3
f 176/2/3 172/2/3 175/2/3
f 178/3/3 175/3/3 174/3/3
f 178/3/3 176/3/3 175/3/3
f 179/3/3 176/3/3 178/3/3
f 180/3/3 176/3/3 179/3/3
f 181/2/3 178/2/3 177/2/3
f 182/2/3 178/2/3 181/2/3
f 183/2/3 180/2/3 179/2/3
f 184/2/3 180/2/3 183/2/3
f 186/3/3 183/3/3 182/3/3
f 186/3/3 184/3/3 183/3/3
f 187/3/3 184/3/3 186/3/3
f 188/3/3 184/3/3 187/3/3
f 189/2/3 186/2/3 185/2/3
f 190/2/3 186/2/3 189/2/3
f 191/2/3 188/2/3 187/2/3
f 192/2/3 188/2/3 191/2/3
f 195/3/3 194/3/3 193/3/3
f 196/3/3 194/3/3 195/3/3
f 199/3/3 198/3/3 197/3/3
f 200/3/3 198/3/3 199/3/3
f 203/3/3 202/3/3 201/3/3
f 204/3/3 202/3/3 203/3/3
f 207/3/3 206/3/3 205/3/3
f 208/3/3 206/3/3 207/3/3
f 210/3/3 209/3/3 208/3/3
f 211/3/3 209/3/3 210/3/3
f 215/3/3 213/3/3 212/3/3
f 216/3/3 213/3/3 215/3/3
f 217/3/3 215/3/3 214/3/3
f 218/3/3 215/3/3 217/3/3
f 221/3/3 220/3/3 219/3/3
f 222/3/3 220/3/3 221/3/3
f 224/3/3 223/3/3 222/3/3
f 225/3/3 223/3/3 224/3/3
f 229/3/3 227/3/3 226/3/3
f 230/3/3 227/3/3 229/3/3
f 231/3/3 229/3/3 228/3/3
f 232/3/3 229/3/3 231/3/3
f 235/3/3 234/3/3 233/3/3
f 236/3/3 234/3/3 235/3/3
f 237/2/3 236/2/3 235/2/3
f 238/2/3 236/2/3 237/2/3
f 239/3/3 238/3/3 237/3/3
f 240/3/3 238/3/3 239/3/3
f 241/3/4 242/3/4 243/3/4
f 243/3/4 242/3/4 244/3/4
f 243/2/4 244/2/4 245/2/4
f 245/2/4 244/2/4 246/2/4
f 245/3/4 246/3/4 247/3/4
f 247/3/4 246/3/4 248/3/4
f 249/3/4 250/3/4 251/3/4
f 251/3/4 250/3/4 252/3/4
f 252/3/4 253/3/4 254/3/4
f 254/3/4 253/3/4 255/3/4
f 256/3/4 257/3/4 259/3/4
f 259/3/4 257/3/4 260/3/4
f 258/3/4 259/3/4 261/3/4
f 261/3/4 259/3/4 262/3/4
f 263/3/4 264/3/4 265/3/4
f 265/3/4 264/3/4 266/3/4
f 266/3/4 267/3/4 268/3/4
f 268/3/4 267/3/4 269/3/4
f 270/3/4 271/3/4 273/3/4
f 273/3/4 271/3/4 274/3/4
f 272/3/4 273/3/4 275/3/4
f 275/3/4 273/3/4 276/3/4
f 277/3/4 278/3/4 279/3/4
f 279/3/4 278/3/4 280/3/4
f 281/3/4 282/3/4 283/3/4
f 283/3/4 282/3/4 284/3/4
f 285/3/4 286/3/4 287/3/4
f 287/3/4 286/3/4 288/3/4
f 289/2/4 290/2/4 293/2/4
f 293/2/4 290/2/4 294/2/4
f 291/2/4 292/2/4 295/2/4
f 295/2/4 292/2/4 296/2/4
f 294/3/4 295/3/4 298/3/4
f 295/3/4 296/3/4 298/3/4
f 298/3/4 296/3/4 299/3/4
f 299/3/4 296/3/4 300/3/4
f 297/2/4 298/2/4 301/2/4
f 301/2/4 298/2/4 302/2/4
f 299/2/4 300/2/4 303/2/4
f 303/2/4 300/2/4 304/2/4
f 302/3/4 303/3/4 306/3/4
f 303/3/4 304/3/4 306/3/4
f 306/3/4 304/3/4 307/3/4
f 307/3/4 304/3/4 308/3/4
f 305/2/4 306/2/4 309/2/4
f 309/2/4 306/2/4 310/2/4
f 307/2/4 308/2/4 311/2/4
f 311/2/4 308/2/4 312/2/4
f 313/3/4 314/3/4 315/3/4
f 315/3/4 314/3/4 316/3/4
f 317/3/4 318/3/4 319/3/4
f 319/3/4 318/3/4 320/3/4
f 326/3/5 322/3/5 321/3/5
f 327/3/5 322/3/5 326/3/5
f 328/3/5 324/3/5 323/3/5
f 329/3/5 324/3/5 328/3/5
f 332/2/5 327/2/5 326/2/5
f 332/2/5 330/2/5 329/2/5
f 332/2/5 329/2/5 328/2/5
f 332/2/5 328/2/5 327/2/5
f 332/2/5 326/2/5 325/2/5
f 333/2/5 330/2/5 332/2/5
f 335/3/5 332/3/5 331/3/5
f 336/2/5 333/2/5 332/2/5
f 336/3/5 332/3/5 335/3/5
f 337/3/5 334/3/5 333/3/5
f 337/2/5 333/2/5 336/2/5
f 338/3/5 334/3/5 337/3/5
f 340/2/5 337/2/5 336/2/5
f 341/2/5 337/2/5 340/2/5
f 343/3/5 340/3/5 339/3/5
f 344/2/5 341/2/5 340/2/5
f 344/3/5 340/3/5 343/3/5
f 345/3/5 342/3/5 341/3/5
f 345/2/5 341/2/5 344/2/5
f 346/3/5 342/3/5 345/3/5
f 347/2/5 345/2/5 344/2/5
f 348/2/5 345/2/5 347/2/5
f 349/2/5 345/2/5 348/2/5
f 350/2/5 345/2/5 349/2/5
f 351/2/5 345/2/5 350/2/5
f 352/2/5 345/2/5 351/2/5
f 353/3/5 349/3/5 348/3/5
f 354/3/5 349/3/5 353/3/5
f 355/3/5 351/3/5 350/3/5
f 356/3/5 351/3/5 355/3/5
f 363/2/5 358/2/5 357/2/5
f 364/2/5 358/2/5 363/2/5
f 365/2/5 360/2/5 359/2/5
f 366/2/5 360/2/5 365/2/5
f 367/2/5 362/2/5 361/2/5
f 368/2/5 362/2/5 367/2/5
f 369/2/5 363/2/5 357/2/5
f 370/2/5 363/2/5 369/2/5
f 371/2/5 362/2/5 368/2/5
f 372/2/5 362/2/5 371/2/5
f 377/2/5 374/2/5 373/2/5
f 378/2/5 374/2/5 377/2/5
f 379/2/5 376/2/5 375/2/5
f 380/2/5 376/2/5 379/2/5
f 385/2/5 382/2/5 381/2/5
f 390/2/5 384/2/5 383/2/5
f 391/2/5 385/2/5 381/2/5
f 391/2/5 386/2/5 385/2/5
f 392/2/5 386/2/5 391/2/5
f 393/2/5 388/2/5 387/2/5
f 394/2/5 388/2/5 393/2/5
f 395/2/5 390/2/5 389/2/5
f 396/2/5 384/2/5 390/2/5
f 396/2/5 390/2/5 395/2/5
f 397/3/6 398/3/6 402/3/6
f 402/3/6 398/3/6 403/3/6
f 399/3/6 400/3/6 404/3/6
f 404/3/6 400/3/6 405/3/6
f 401/2/6 402/2/6 407/2/6
f 407/2/6 402/2/6 408/2/6
f 403/2/6 404/2/6 409/2/6
f 409/2/6 404/2/6 410/2/6
f 405/2/6 406/2/6 411/2/6
f 411/2/6 406/2/6 412/2/6
f 401/2/6 407/2/6 414/2/6
f 414/2/6 407/2/6 415/2/6
f 412/2/6 406/2/6 416/2/6
f 416/2/6 406/2/6 417/2/6
f 413/3/6 414/3/6 419/3/6
f 419/3/6 414/3/6 420/3/6
f 417/3/6 418/3/6 423/3/6
f 423/3/6 418/3/6 424/3/6
f 420/2/6 421/2/6 426/2/6
f 426/2/6 421/2/6 427/2/6
f 422/2/6 423/2/6 428/2/6
f 428/2/6 423/2/6 429/2/6
f 425/3/6 426/3/6 431/3/6
f 431/3/6 426/3/6 432/3/6
f 429/3/6 430/3/6 435/3/6
f 435/3/6 430/3/6 436/3/6
f 432/2/6 433/2/6 437/2/6
f 434/2/6 435/2/6 442/2/6
f 432/2/6 437/2/6 443/2/6
f 437/2/6 438/2/6 443/2/6
f 443/2/6 438/2/6 444/2/6
f 439/2/6 440/2/6 445/2/6
f 445/2/6 440/2/6 446/2/6
f 441/2/6 442/2/6 447/2/6
f 442/2/6 435/2/6 448/2/6
f 447/2/6 442/2/6 448/2/6
f 444/3/6 445/3/6 449/3/6
f 449/3/6 445/3/6 450/3/6
f 446/3/6 447/3/6 451/3/6
f 451/3/6 447/3/6 452/3/6
f 453/1/6 454/1/6 457/1/6
f 455/1/6 456/1/6 457/1/6
f 454/1/6 455/1/6 457/1/6
f 457/1/6 456/1/6 458/1/6
f 457/1/6 458/1/6 459/1/6
f 459/1/6 458/1/6 460/1/6
f 459/1/6 460/1/6 461/1/6
f 461/1/6 460/1/6 462/1/6
f 462/1/6 460/1/6 463/1/6
f 463/1/6 460/1/6 464/1/6
f 465/2/6 466/2/6 471/2/6
f 466/3/6 467/3/6 472/3/6
f 471/2/6 466/2/6 472/2/6
f 467/2/6 468/2/6 473/2/6
f 472/3/6 467/3/6 473/3/6
f 468/3/6 469/3/6 474/3/6
f 473/2/6 468/2/6 474/2/6
f 469/2/6 470/2/6 475/2/6
f 474/3/6 469/3/6 475/3/6
f 475/2/6 470/2/6 476/2/6
f 471/3/6 472/3/6 477/3/6
f 477/3/6 472/3/6 478/3/6
f 475/3/6 476/3/6 479/3/6
f 479/3/6 476/3/6 480/3/6
f 477/2/6 478/2/6 481/2/6
f 481/2/6 478/2/6 482/2/6
f 479/2/6 480/2/6 483/2/6
f 483/2/6 480/2/6 484/2/6
f 481/3/6 482/3/6 485/3/6
f 485/3/6 482/3/6 486/3/6
f 483/3/6 484/3/6 489/3/6
f 489/3/6 484/3/6 490/3/6
f 485/2/6 486/2/6 491/2/6
f 486/3/6 487/3/6 492/3/6
f 491/2/6 486/2/6 492/2/6
f 487/2/6 488/2/6 493/2/6
f 492/3/6 487/3/6 493/3/6
f 488/3/6 489/3/6 494/3/6
f 493/2/6 488/2/6 494/2/6
f 489/2/6 490/2/6 495/2/6
f 494/3/6 489/3/6 495/3/6
f 495/2/6 490/2/6 496/2/6
