# MagicaVoxel @ Ephtracy

# material
mtllib GrabberClaw.mtl
usemtl palette

# normals
vn -1 0 0
vn 1 0 0
vn 0 0 1
vn 0 0 -1
vn 0 -1 0
vn 0 1 0

# texcoords
vt 0.931641 0.5
vt 0.935547 0.5

# verts
v -2.5 2 6.5
v -2.5 2 4.5
v -2.5 3 6.5
v -2.5 3 5.5
v -2.5 4 5.5
v -2.5 4 4.5
v -2.5 8 5.5
v -2.5 8 4.5
v -2.5 9 7.5
v -2.5 9 5.5
v -2.5 11 5.5
v -2.5 11 4.5
v -2.5 12 7.5
v -2.5 12 5.5
v -2.5 13 7.5
v -2.5 13 5.5
v 0.5 2 6.5
v 0.5 2 4.5
v 0.5 3 6.5
v 0.5 3 5.5
v 0.5 4 5.5
v 0.5 4 4.5
v 0.5 8 5.5
v 0.5 8 4.5
v 0.5 9 5.5
v 0.5 9 4.5
v -1.5 2 6.5
v -1.5 2 4.5
v -1.5 3 6.5
v -1.5 3 5.5
v -1.5 4 5.5
v -1.5 4 4.5
v -1.5 8 5.5
v -1.5 8 4.5
v -1.5 9 5.5
v -1.5 9 4.5
v 1.5 2 6.5
v 1.5 2 4.5
v 1.5 3 6.5
v 1.5 3 5.5
v 1.5 4 5.5
v 1.5 4 4.5
v 1.5 8 5.5
v 1.5 8 4.5
v 1.5 9 7.5
v 1.5 9 5.5
v 1.5 11 5.5
v 1.5 11 4.5
v 1.5 12 7.5
v 1.5 12 5.5
v 1.5 13 7.5
v 1.5 13 5.5
v -2.5 9 7.5
v -2.5 12 7.5
v -2.5 13 7.5
v 1.5 9 7.5
v 1.5 12 7.5
v 1.5 13 7.5
v -2.5 2 6.5
v -2.5 3 6.5
v -1.5 2 6.5
v -1.5 3 6.5
v 0.5 2 6.5
v 0.5 3 6.5
v 1.5 2 6.5
v 1.5 3 6.5
v -2.5 3 5.5
v -2.5 4 5.5
v -2.5 8 5.5
v -2.5 9 5.5
v -1.5 3 5.5
v -1.5 4 5.5
v -1.5 8 5.5
v -1.5 9 5.5
v 0.5 3 5.5
v 0.5 4 5.5
v 0.5 8 5.5
v 0.5 9 5.5
v 1.5 3 5.5
v 1.5 4 5.5
v 1.5 8 5.5
v 1.5 9 5.5
v -2.5 11 5.5
v -2.5 12 5.5
v -2.5 13 5.5
v 1.5 11 5.5
v 1.5 12 5.5
v 1.5 13 5.5
v -2.5 2 4.5
v -2.5 4 4.5
v -2.5 8 4.5
v -2.5 11 4.5
v -1.5 2 4.5
v -1.5 4 4.5
v -1.5 8 4.5
v -1.5 9 4.5
v 0.5 2 4.5
v 0.5 4 4.5
v 0.5 8 4.5
v 0.5 9 4.5
v 1.5 2 4.5
v 1.5 4 4.5
v 1.5 8 4.5
v 1.5 11 4.5
v -2.5 2 6.5
v -1.5 2 6.5
v 0.5 2 6.5
v 1.5 2 6.5
v -2.5 2 4.5
v -1.5 2 4.5
v 0.5 2 4.5
v 1.5 2 4.5
v -2.5 9 7.5
v 1.5 9 7.5
v -2.5 9 5.5
v -1.5 9 5.5
v 0.5 9 5.5
v 1.5 9 5.5
v -1.5 9 4.5
v 0.5 9 4.5
v -2.5 3 6.5
v -1.5 3 6.5
v 0.5 3 6.5
v 1.5 3 6.5
v -2.5 3 5.5
v -1.5 3 5.5
v 0.5 3 5.5
v 1.5 3 5.5
v -2.5 11 5.5
v 1.5 11 5.5
v -2.5 11 4.5
v 1.5 11 4.5
v -2.5 13 7.5
v 1.5 13 7.5
v -2.5 13 5.5
v 1.5 13 5.5

# faces
f 3/2/1 2/2/1 1/2/1
f 4/2/1 2/2/1 3/2/1
f 5/2/1 2/2/1 4/2/1
f 6/2/1 2/2/1 5/2/1
f 7/1/1 6/1/1 5/1/1
f 8/1/1 6/1/1 7/1/1
f 10/2/1 8/2/1 7/2/1
f 11/2/1 8/2/1 10/2/1
f 11/1/1 10/1/1 9/1/1
f 12/2/1 8/2/1 11/2/1
f 13/1/1 11/1/1 9/1/1
f 14/1/1 11/1/1 13/1/1
f 15/2/1 14/2/1 13/2/1
f 16/2/1 14/2/1 15/2/1
f 19/2/1 18/2/1 17/2/1
f 20/2/1 18/2/1 19/2/1
f 21/2/1 18/2/1 20/2/1
f 22/2/1 18/2/1 21/2/1
f 23/1/1 22/1/1 21/1/1
f 24/1/1 22/1/1 23/1/1
f 25/2/1 24/2/1 23/2/1
f 26/2/1 24/2/1 25/2/1
f 27/2/2 28/2/2 29/2/2
f 29/2/2 28/2/2 30/2/2
f 30/2/2 28/2/2 31/2/2
f 31/2/2 28/2/2 32/2/2
f 31/1/2 32/1/2 33/1/2
f 33/1/2 32/1/2 34/1/2
f 33/2/2 34/2/2 35/2/2
f 35/2/2 34/2/2 36/2/2
f 37/2/2 38/2/2 39/2/2
f 39/2/2 38/2/2 40/2/2
f 40/2/2 38/2/2 41/2/2
f 41/2/2 38/2/2 42/2/2
f 41/1/2 42/1/2 43/1/2
f 43/1/2 42/1/2 44/1/2
f 43/2/2 44/2/2 46/2/2
f 46/2/2 44/2/2 47/2/2
f 45/1/2 46/1/2 47/1/2
f 47/2/2 44/2/2 48/2/2
f 45/1/2 47/1/2 49/1/2
f 49/1/2 47/1/2 50/1/2
f 49/2/2 50/2/2 51/2/2
f 51/2/2 50/2/2 52/2/2
f 56/1/3 54/1/3 53/1/3
f 57/2/3 55/2/3 54/2/3
f 57/1/3 54/1/3 56/1/3
f 58/2/3 55/2/3 57/2/3
f 61/2/3 60/2/3 59/2/3
f 62/2/3 60/2/3 61/2/3
f 65/2/3 64/2/3 63/2/3
f 66/2/3 64/2/3 65/2/3
f 71/2/3 68/2/3 67/2/3
f 72/1/3 69/1/3 68/1/3
f 72/2/3 68/2/3 71/2/3
f 73/2/3 70/2/3 69/2/3
f 73/1/3 69/1/3 72/1/3
f 74/2/3 70/2/3 73/2/3
f 79/2/3 76/2/3 75/2/3
f 80/1/3 77/1/3 76/1/3
f 80/2/3 76/2/3 79/2/3
f 81/2/3 78/2/3 77/2/3
f 81/1/3 77/1/3 80/1/3
f 82/2/3 78/2/3 81/2/3
f 83/1/4 84/1/4 86/1/4
f 84/2/4 85/2/4 87/2/4
f 86/1/4 84/1/4 87/1/4
f 87/2/4 85/2/4 88/2/4
f 89/2/4 90/2/4 93/2/4
f 90/1/4 91/1/4 94/1/4
f 93/2/4 90/2/4 94/2/4
f 91/2/4 92/2/4 95/2/4
f 94/1/4 91/1/4 95/1/4
f 95/2/4 92/2/4 96/2/4
f 96/2/4 92/2/4 100/2/4
f 97/2/4 98/2/4 101/2/4
f 98/1/4 99/1/4 102/1/4
f 101/2/4 98/2/4 102/2/4
f 99/2/4 100/2/4 103/2/4
f 102/1/4 99/1/4 103/1/4
f 100/2/4 92/2/4 104/2/4
f 103/2/4 100/2/4 104/2/4
f 109/2/5 106/2/5 105/2/5
f 110/2/5 106/2/5 109/2/5
f 111/2/5 108/2/5 107/2/5
f 112/2/5 108/2/5 111/2/5
f 115/1/5 114/1/5 113/1/5
f 116/1/5 114/1/5 115/1/5
f 117/1/5 114/1/5 116/1/5
f 118/1/5 114/1/5 117/1/5
f 119/2/5 117/2/5 116/2/5
f 120/2/5 117/2/5 119/2/5
f 121/2/6 122/2/6 125/2/6
f 125/2/6 122/2/6 126/2/6
f 123/2/6 124/2/6 127/2/6
f 127/2/6 124/2/6 128/2/6
f 129/2/6 130/2/6 131/2/6
f 131/2/6 130/2/6 132/2/6
f 133/2/6 134/2/6 135/2/6
f 135/2/6 134/2/6 136/2/6
