# MagicaVoxel @ Ephtracy

# material
mtllib Fern2.mtl
usemtl palette

# normals
vn -1 0 0
vn 1 0 0
vn 0 0 1
vn 0 0 -1
vn 0 -1 0
vn 0 1 0

# texcoords
vt 0.583984 0.5
vt 0.607422 0.5

# verts
v -3 0 -0
v -3 0 -1
v -3 1 -0
v -3 1 -1
v -2 0 -1
v -2 0 -2
v -2 1 -1
v -2 1 -2
v 0 0 3
v 0 0 2
v 0 0 1
v 0 1 3
v 0 1 2
v 0 1 1
v 1 0 -1
v 1 0 -2
v 1 0 -3
v 1 1 -1
v 1 1 -2
v 1 1 -3
v -1 0 -0
v -1 0 -1
v -1 0 -2
v -1 1 -0
v -1 1 -1
v -1 1 -2
v 1 0 3
v 1 0 2
v 1 1 3
v 1 1 2
v 2 0 2
v 2 0 1
v 2 0 -2
v 2 0 -3
v 2 1 2
v 2 1 1
v 2 1 -2
v 2 1 -3
v 3 0 -1
v 3 0 -2
v 3 1 -1
v 3 1 -2
v 0 0 3
v 0 1 3
v 1 0 3
v 1 1 3
v 1 0 2
v 1 1 2
v 2 0 2
v 2 1 2
v -3 0 -0
v -3 1 -0
v -2 0 -0
v -2 1 -0
v -1 0 -0
v -1 1 -0
v 1 0 -1
v 1 1 -1
v 2 0 -1
v 2 1 -1
v 3 0 -1
v 3 1 -1
v 0 0 1
v 0 1 1
v 1 0 1
v 1 1 1
v 2 0 1
v 2 1 1
v -3 0 -1
v -3 1 -1
v -2 0 -1
v -2 1 -1
v -2 0 -2
v -2 1 -2
v -1 0 -2
v -1 1 -2
v 2 0 -2
v 2 1 -2
v 3 0 -2
v 3 1 -2
v 1 0 -3
v 1 1 -3
v 2 0 -3
v 2 1 -3
v 0 0 3
v 1 0 3
v 0 0 2
v 1 0 2
v 2 0 2
v 0 0 1
v 1 0 1
v 2 0 1
v -3 0 -0
v -2 0 -0
v -1 0 -0
v -3 0 -1
v -2 0 -1
v -1 0 -1
v 1 0 -1
v 2 0 -1
v 3 0 -1
v -2 0 -2
v -1 0 -2
v 1 0 -2
v 2 0 -2
v 3 0 -2
v 1 0 -3
v 2 0 -3
v 0 1 3
v 1 1 3
v 0 1 2
v 1 1 2
v 2 1 2
v 0 1 1
v 1 1 1
v 2 1 1
v -3 1 -0
v -2 1 -0
v -1 1 -0
v -3 1 -1
v -2 1 -1
v -1 1 -1
v 1 1 -1
v 2 1 -1
v 3 1 -1
v -2 1 -2
v -1 1 -2
v 1 1 -2
v 2 1 -2
v 3 1 -2
v 1 1 -3
v 2 1 -3

# faces
f 3/1/1 2/1/1 1/1/1
f 4/1/1 2/1/1 3/1/1
f 7/1/1 6/1/1 5/1/1
f 8/1/1 6/1/1 7/1/1
f 12/1/1 10/1/1 9/1/1
f 13/2/1 11/2/1 10/2/1
f 13/1/1 10/1/1 12/1/1
f 14/2/1 11/2/1 13/2/1
f 18/2/1 16/2/1 15/2/1
f 19/1/1 17/1/1 16/1/1
f 19/2/1 16/2/1 18/2/1
f 20/1/1 17/1/1 19/1/1
f 21/2/2 22/2/2 24/2/2
f 22/1/2 23/1/2 25/1/2
f 24/2/2 22/2/2 25/2/2
f 25/1/2 23/1/2 26/1/2
f 27/1/2 28/1/2 29/1/2
f 29/1/2 28/1/2 30/1/2
f 31/1/2 32/1/2 35/1/2
f 35/1/2 32/1/2 36/1/2
f 33/1/2 34/1/2 37/1/2
f 37/1/2 34/1/2 38/1/2
f 39/1/2 40/1/2 41/1/2
f 41/1/2 40/1/2 42/1/2
f 45/1/3 44/1/3 43/1/3
f 46/1/3 44/1/3 45/1/3
f 49/1/3 48/1/3 47/1/3
f 50/1/3 48/1/3 49/1/3
f 53/1/3 52/1/3 51/1/3
f 54/1/3 52/1/3 53/1/3
f 55/2/3 54/2/3 53/2/3
f 56/2/3 54/2/3 55/2/3
f 59/2/3 58/2/3 57/2/3
f 60/2/3 58/2/3 59/2/3
f 61/1/3 60/1/3 59/1/3
f 62/1/3 60/1/3 61/1/3
f 63/2/4 64/2/4 65/2/4
f 65/2/4 64/2/4 66/2/4
f 65/1/4 66/1/4 67/1/4
f 67/1/4 66/1/4 68/1/4
f 69/1/4 70/1/4 71/1/4
f 71/1/4 70/1/4 72/1/4
f 73/1/4 74/1/4 75/1/4
f 75/1/4 74/1/4 76/1/4
f 77/1/4 78/1/4 79/1/4
f 79/1/4 78/1/4 80/1/4
f 81/1/4 82/1/4 83/1/4
f 83/1/4 82/1/4 84/1/4
f 87/1/5 86/1/5 85/1/5
f 88/1/5 86/1/5 87/1/5
f 90/2/5 88/2/5 87/2/5
f 91/1/5 89/1/5 88/1/5
f 91/2/5 88/2/5 90/2/5
f 92/1/5 89/1/5 91/1/5
f 96/1/5 94/1/5 93/1/5
f 97/2/5 95/2/5 94/2/5
f 97/1/5 94/1/5 96/1/5
f 98/2/5 95/2/5 97/2/5
f 102/1/5 98/1/5 97/1/5
f 103/1/5 98/1/5 102/1/5
f 104/2/5 100/2/5 99/2/5
f 105/1/5 101/1/5 100/1/5
f 105/2/5 100/2/5 104/2/5
f 106/1/5 101/1/5 105/1/5
f 107/1/5 105/1/5 104/1/5
f 108/1/5 105/1/5 107/1/5
f 109/1/6 110/1/6 111/1/6
f 111/1/6 110/1/6 112/1/6
f 111/2/6 112/2/6 114/2/6
f 112/1/6 113/1/6 115/1/6
f 114/2/6 112/2/6 115/2/6
f 115/1/6 113/1/6 116/1/6
f 117/1/6 118/1/6 120/1/6
f 118/2/6 119/2/6 121/2/6
f 120/1/6 118/1/6 121/1/6
f 121/2/6 119/2/6 122/2/6
f 121/1/6 122/1/6 126/1/6
f 126/1/6 122/1/6 127/1/6
f 123/2/6 124/2/6 128/2/6
f 124/1/6 125/1/6 129/1/6
f 128/2/6 124/2/6 129/2/6
f 129/1/6 125/1/6 130/1/6
f 128/1/6 129/1/6 131/1/6
f 131/1/6 129/1/6 132/1/6
