# MagicaVoxel @ Ephtracy

# material
mtllib Pumkin1.mtl
usemtl palette

# normals
vn -1 0 0
vn 1 0 0
vn 0 0 1
vn 0 0 -1
vn 0 -1 0
vn 0 1 0

# texcoords
vt 0.166016 0.5
vt 0.208984 0.5
vt 0.529297 0.5
vt 0.994141 0.5

# verts
v -3.5 0 1.5
v -3.5 0 -0.5
v -3.5 0 -1.5
v -3.5 1 2.5
v -3.5 1 1.5
v -3.5 1 -1.5
v -3.5 1 -2.5
v -3.5 4 2.5
v -3.5 4 1.5
v -3.5 4 0.5
v -3.5 4 -0.5
v -3.5 4 -1.5
v -3.5 4 -2.5
v -3.5 5 1.5
v -3.5 5 0.5
v -3.5 5 -1.5
v -2.5 0 2.5
v -2.5 0 1.5
v -2.5 0 -1.5
v -2.5 0 -2.5
v -2.5 1 3.5
v -2.5 1 2.5
v -2.5 1 1.5
v -2.5 1 -1.5
v -2.5 1 -2.5
v -2.5 1 -3.5
v -2.5 4 3.5
v -2.5 4 2.5
v -2.5 4 1.5
v -2.5 4 -1.5
v -2.5 4 -2.5
v -2.5 4 -3.5
v -2.5 5 2.5
v -2.5 5 1.5
v -2.5 5 -1.5
v -2.5 5 -2.5
v -1.5 0 3.5
v -1.5 0 2.5
v -1.5 0 -2.5
v -1.5 0 -3.5
v -1.5 1 3.5
v -1.5 1 2.5
v -1.5 1 -2.5
v -1.5 1 -3.5
v -1.5 4 3.5
v -1.5 4 2.5
v -1.5 4 -2.5
v -1.5 4 -3.5
v -1.5 5 3.5
v -1.5 5 2.5
v -1.5 5 -2.5
v -1.5 5 -3.5
v -1.5 7 1.5
v -1.5 7 -0.5
v -1.5 8 1.5
v -1.5 8 -0.5
v -0.5 5 0.5
v -0.5 5 -0.5
v -0.5 5 -1.5
v -0.5 6 -0.5
v -0.5 6 -1.5
v -0.5 7 0.5
v -0.5 7 -0.5
v -0.5 7 1.5
v -0.5 7 0.5
v -0.5 7 -0.5
v -0.5 8 1.5
v -0.5 8 -0.5
v 0.5 5 -0.5
v 0.5 5 -1.5
v 0.5 6 0.5
v 0.5 6 -0.5
v 0.5 6 -1.5
v 0.5 7 0.5
v 0.5 7 -0.5
v 1.5 0 3.5
v 1.5 0 2.5
v 1.5 0 -2.5
v 1.5 0 -3.5
v 1.5 1 3.5
v 1.5 1 2.5
v 1.5 1 -2.5
v 1.5 1 -3.5
v 1.5 4 3.5
v 1.5 4 2.5
v 1.5 4 -2.5
v 1.5 4 -3.5
v 1.5 5 3.5
v 1.5 5 2.5
v 1.5 5 0.5
v 1.5 5 -0.5
v 1.5 5 -2.5
v 1.5 5 -3.5
v 1.5 6 0.5
v 1.5 6 -0.5
v 2.5 0 2.5
v 2.5 0 1.5
v 2.5 0 -1.5
v 2.5 0 -2.5
v 2.5 1 3.5
v 2.5 1 2.5
v 2.5 1 1.5
v 2.5 1 -1.5
v 2.5 1 -2.5
v 2.5 1 -3.5
v 2.5 3 1.5
v 2.5 3 0.5
v 2.5 3 -0.5
v 2.5 3 -1.5
v 2.5 4 3.5
v 2.5 4 2.5
v 2.5 4 1.5
v 2.5 4 0.5
v 2.5 4 -0.5
v 2.5 4 -1.5
v 2.5 4 -2.5
v 2.5 4 -3.5
v 2.5 5 2.5
v 2.5 5 1.5
v 2.5 5 -1.5
v 2.5 5 -2.5
v 3.5 0 1.5
v 3.5 0 0.5
v 3.5 0 -1.5
v 3.5 1 2.5
v 3.5 1 1.5
v 3.5 1 -1.5
v 3.5 1 -2.5
v 3.5 2 1.5
v 3.5 2 0.5
v 3.5 2 -0.5
v 3.5 3 1.5
v 3.5 3 0.5
v 3.5 3 -0.5
v 3.5 3 -1.5
v 3.5 4 2.5
v 3.5 4 1.5
v 3.5 4 0.5
v 3.5 4 -0.5
v 3.5 4 -1.5
v 3.5 4 -2.5
v 3.5 5 1.5
v 3.5 5 0.5
v 3.5 5 -0.5
v 3.5 5 -1.5
v -2.5 1 3.5
v -2.5 4 3.5
v -1.5 0 3.5
v -1.5 1 3.5
v -1.5 4 3.5
v -1.5 5 3.5
v -0.5 0 3.5
v -0.5 1 3.5
v -0.5 4 3.5
v 0.5 1 3.5
v 0.5 4 3.5
v 1.5 0 3.5
v 1.5 1 3.5
v 1.5 4 3.5
v 1.5 5 3.5
v 2.5 1 3.5
v 2.5 4 3.5
v -3.5 1 2.5
v -3.5 4 2.5
v -2.5 0 2.5
v -2.5 1 2.5
v -2.5 4 2.5
v -2.5 5 2.5
v -1.5 0 2.5
v -1.5 1 2.5
v -1.5 4 2.5
v -1.5 5 2.5
v 1.5 0 2.5
v 1.5 1 2.5
v 1.5 4 2.5
v 1.5 5 2.5
v 2.5 0 2.5
v 2.5 1 2.5
v 2.5 4 2.5
v 2.5 5 2.5
v 3.5 1 2.5
v 3.5 4 2.5
v -3.5 0 1.5
v -3.5 1 1.5
v -3.5 4 1.5
v -3.5 5 1.5
v -2.5 0 1.5
v -2.5 1 1.5
v -2.5 4 1.5
v -2.5 5 1.5
v -1.5 7 1.5
v -1.5 8 1.5
v -0.5 7 1.5
v -0.5 8 1.5
v 2.5 0 1.5
v 2.5 1 1.5
v 2.5 4 1.5
v 2.5 5 1.5
v 3.5 0 1.5
v 3.5 1 1.5
v 3.5 4 1.5
v 3.5 5 1.5
v -0.5 5 0.5
v -0.5 7 0.5
v 0.5 5 0.5
v 0.5 6 0.5
v 0.5 7 0.5
v 1.5 5 0.5
v 1.5 6 0.5
v 2.5 3 0.5
v 2.5 4 0.5
v 3.5 3 0.5
v 3.5 4 0.5
v 2.5 3 -1.5
v 2.5 4 -1.5
v 3.5 3 -1.5
v 3.5 4 -1.5
v 2.5 3 1.5
v 2.5 4 1.5
v 3.5 3 1.5
v 3.5 4 1.5
v -1.5 7 -0.5
v -1.5 8 -0.5
v -0.5 6 -0.5
v -0.5 7 -0.5
v -0.5 8 -0.5
v 0.5 5 -0.5
v 0.5 6 -0.5
v 0.5 7 -0.5
v 1.5 5 -0.5
v 1.5 6 -0.5
v 2.5 3 -0.5
v 2.5 4 -0.5
v 3.5 3 -0.5
v 3.5 4 -0.5
v -3.5 0 -1.5
v -3.5 1 -1.5
v -3.5 4 -1.5
v -3.5 5 -1.5
v -2.5 0 -1.5
v -2.5 1 -1.5
v -2.5 4 -1.5
v -2.5 5 -1.5
v -0.5 5 -1.5
v -0.5 6 -1.5
v 0.5 5 -1.5
v 0.5 6 -1.5
v 2.5 0 -1.5
v 2.5 1 -1.5
v 2.5 4 -1.5
v 2.5 5 -1.5
v 3.5 0 -1.5
v 3.5 1 -1.5
v 3.5 4 -1.5
v 3.5 5 -1.5
v -3.5 1 -2.5
v -3.5 4 -2.5
v -2.5 0 -2.5
v -2.5 1 -2.5
v -2.5 4 -2.5
v -2.5 5 -2.5
v -1.5 0 -2.5
v -1.5 1 -2.5
v -1.5 4 -2.5
v -1.5 5 -2.5
v 1.5 0 -2.5
v 1.5 1 -2.5
v 1.5 4 -2.5
v 1.5 5 -2.5
v 2.5 0 -2.5
v 2.5 1 -2.5
v 2.5 4 -2.5
v 2.5 5 -2.5
v 3.5 1 -2.5
v 3.5 4 -2.5
v -2.5 1 -3.5
v -2.5 4 -3.5
v -1.5 0 -3.5
v -1.5 1 -3.5
v -1.5 4 -3.5
v -1.5 5 -3.5
v -0.5 4 -3.5
v -0.5 5 -3.5
v 0.5 0 -3.5
v 0.5 4 -3.5
v 0.5 5 -3.5
v 1.5 0 -3.5
v 1.5 1 -3.5
v 1.5 4 -3.5
v 1.5 5 -3.5
v 2.5 1 -3.5
v 2.5 4 -3.5
v -1.5 0 3.5
v -0.5 0 3.5
v 1.5 0 3.5
v -2.5 0 2.5
v -1.5 0 2.5
v -0.5 0 2.5
v 1.5 0 2.5
v 2.5 0 2.5
v -3.5 0 1.5
v -2.5 0 1.5
v 1.5 0 1.5
v 2.5 0 1.5
v 3.5 0 1.5
v 2.5 0 0.5
v 3.5 0 0.5
v -3.5 0 -0.5
v -2.5 0 -0.5
v -3.5 0 -1.5
v -2.5 0 -1.5
v 2.5 0 -1.5
v 3.5 0 -1.5
v -2.5 0 -2.5
v -1.5 0 -2.5
v 0.5 0 -2.5
v 1.5 0 -2.5
v 2.5 0 -2.5
v -1.5 0 -3.5
v 0.5 0 -3.5
v 1.5 0 -3.5
v -2.5 1 3.5
v -1.5 1 3.5
v 1.5 1 3.5
v 2.5 1 3.5
v -3.5 1 2.5
v -2.5 1 2.5
v -1.5 1 2.5
v 1.5 1 2.5
v 2.5 1 2.5
v 3.5 1 2.5
v -3.5 1 1.5
v -2.5 1 1.5
v 2.5 1 1.5
v 3.5 1 1.5
v -3.5 1 -1.5
v -2.5 1 -1.5
v 2.5 1 -1.5
v 3.5 1 -1.5
v -3.5 1 -2.5
v -2.5 1 -2.5
v -1.5 1 -2.5
v 1.5 1 -2.5
v 2.5 1 -2.5
v 3.5 1 -2.5
v -2.5 1 -3.5
v -1.5 1 -3.5
v 1.5 1 -3.5
v 2.5 1 -3.5
v 2.5 4 1.5
v 3.5 4 1.5
v 2.5 4 0.5
v 3.5 4 0.5
v 2.5 4 -0.5
v 3.5 4 -0.5
v 2.5 4 -1.5
v 3.5 4 -1.5
v -1.5 7 1.5
v -0.5 7 1.5
v -0.5 7 0.5
v -1.5 7 -0.5
v -0.5 7 -0.5
v 2.5 3 1.5
v 3.5 3 1.5
v 2.5 3 0.5
v 3.5 3 0.5
v 2.5 3 -0.5
v 3.5 3 -0.5
v 2.5 3 -1.5
v 3.5 3 -1.5
v -2.5 4 3.5
v -1.5 4 3.5
v 1.5 4 3.5
v 2.5 4 3.5
v -3.5 4 2.5
v -2.5 4 2.5
v -1.5 4 2.5
v 1.5 4 2.5
v 2.5 4 2.5
v 3.5 4 2.5
v -3.5 4 1.5
v -2.5 4 1.5
v 2.5 4 1.5
v 3.5 4 1.5
v -3.5 4 -1.5
v -2.5 4 -1.5
v 2.5 4 -1.5
v 3.5 4 -1.5
v -3.5 4 -2.5
v -2.5 4 -2.5
v -1.5 4 -2.5
v 1.5 4 -2.5
v 2.5 4 -2.5
v 3.5 4 -2.5
v -2.5 4 -3.5
v -1.5 4 -3.5
v 1.5 4 -3.5
v 2.5 4 -3.5
v -1.5 5 3.5
v 1.5 5 3.5
v -2.5 5 2.5
v -1.5 5 2.5
v 1.5 5 2.5
v 2.5 5 2.5
v -3.5 5 1.5
v -2.5 5 1.5
v -1.5 5 1.5
v 1.5 5 1.5
v 2.5 5 1.5
v 3.5 5 1.5
v -3.5 5 0.5
v -1.5 5 0.5
v -0.5 5 0.5
v 0.5 5 0.5
v 1.5 5 0.5
v 2.5 5 0.5
v 3.5 5 0.5
v -0.5 5 -0.5
v 0.5 5 -0.5
v 1.5 5 -0.5
v 2.5 5 -0.5
v 3.5 5 -0.5
v -3.5 5 -1.5
v -2.5 5 -1.5
v -1.5 5 -1.5
v -0.5 5 -1.5
v 0.5 5 -1.5
v 2.5 5 -1.5
v 3.5 5 -1.5
v -2.5 5 -2.5
v -1.5 5 -2.5
v -0.5 5 -2.5
v 0.5 5 -2.5
v 1.5 5 -2.5
v 2.5 5 -2.5
v -1.5 5 -3.5
v -0.5 5 -3.5
v 0.5 5 -3.5
v 1.5 5 -3.5
v 0.5 6 0.5
v 1.5 6 0.5
v -0.5 6 -0.5
v 0.5 6 -0.5
v 1.5 6 -0.5
v -0.5 6 -1.5
v 0.5 6 -1.5
v -0.5 7 0.5
v 0.5 7 0.5
v -0.5 7 -0.5
v 0.5 7 -0.5
v -1.5 8 1.5
v -0.5 8 1.5
v -1.5 8 -0.5
v -0.5 8 -0.5

# faces
f 5/2/1 2/2/1 1/2/1
f 6/1/1 3/1/1 2/1/1
f 8/1/1 5/1/1 4/1/1
f 9/2/1 2/2/1 5/2/1
f 9/1/1 5/1/1 8/1/1
f 10/2/1 2/2/1 9/2/1
f 11/1/1 6/1/1 2/1/1
f 11/2/1 2/2/1 10/2/1
f 12/2/1 7/2/1 6/2/1
f 12/1/1 6/1/1 11/1/1
f 13/2/1 7/2/1 12/2/1
f 14/1/1 10/1/1 9/1/1
f 15/2/1 11/2/1 10/2/1
f 15/1/1 10/1/1 14/1/1
f 15/2/1 12/2/1 11/2/1
f 16/2/1 12/2/1 15/2/1
f 22/2/1 18/2/1 17/2/1
f 23/2/1 18/2/1 22/2/1
f 24/2/1 20/2/1 19/2/1
f 25/2/1 20/2/1 24/2/1
f 27/2/1 22/2/1 21/2/1
f 28/2/1 22/2/1 27/2/1
f 31/1/1 26/1/1 25/1/1
f 32/1/1 26/1/1 31/1/1
f 33/2/1 29/2/1 28/2/1
f 34/2/1 29/2/1 33/2/1
f 35/1/1 31/1/1 30/1/1
f 36/1/1 31/1/1 35/1/1
f 41/1/1 38/1/1 37/1/1
f 42/1/1 38/1/1 41/1/1
f 43/2/1 40/2/1 39/2/1
f 44/2/1 40/2/1 43/2/1
f 49/2/1 46/2/1 45/2/1
f 50/2/1 46/2/1 49/2/1
f 51/2/1 48/2/1 47/2/1
f 52/2/1 48/2/1 51/2/1
f 55/3/1 54/3/1 53/3/1
f 56/3/1 54/3/1 55/3/1
f 60/3/1 58/3/1 57/3/1
f 60/2/1 59/2/1 58/2/1
f 61/2/1 59/2/1 60/2/1
f 62/3/1 60/3/1 57/3/1
f 63/3/1 60/3/1 62/3/1
f 64/3/2 65/3/2 67/3/2
f 65/3/2 66/3/2 67/3/2
f 67/3/2 66/3/2 68/3/2
f 69/2/2 70/2/2 72/2/2
f 72/2/2 70/2/2 73/2/2
f 71/3/2 72/3/2 74/3/2
f 74/3/2 72/3/2 75/3/2
f 76/2/2 77/2/2 80/2/2
f 80/2/2 77/2/2 81/2/2
f 78/1/2 79/1/2 82/1/2
f 82/1/2 79/1/2 83/1/2
f 84/2/2 85/2/2 88/2/2
f 88/2/2 85/2/2 89/2/2
f 86/2/2 87/2/2 92/2/2
f 92/2/2 87/2/2 93/2/2
f 90/2/2 91/2/2 94/2/2
f 94/2/2 91/2/2 95/2/2
f 96/1/2 97/1/2 101/1/2
f 101/1/2 97/1/2 102/1/2
f 98/2/2 99/2/2 103/2/2
f 103/2/2 99/2/2 104/2/2
f 100/1/2 101/1/2 110/1/2
f 110/1/2 101/1/2 111/1/2
f 106/4/2 107/4/2 112/4/2
f 112/4/2 107/4/2 113/4/2
f 108/4/2 109/4/2 114/4/2
f 114/4/2 109/4/2 115/4/2
f 104/2/2 105/2/2 116/2/2
f 116/2/2 105/2/2 117/2/2
f 111/1/2 112/1/2 118/1/2
f 118/1/2 112/1/2 119/1/2
f 115/2/2 116/2/2 120/2/2
f 120/2/2 116/2/2 121/2/2
f 122/1/2 123/1/2 126/1/2
f 123/2/2 124/2/2 127/2/2
f 125/2/2 126/2/2 129/2/2
f 126/1/2 123/1/2 129/1/2
f 127/2/2 128/2/2 130/2/2
f 129/1/2 123/1/2 130/1/2
f 123/2/2 127/2/2 130/2/2
f 130/2/2 128/2/2 131/2/2
f 125/2/2 129/2/2 132/2/2
f 129/2/2 130/2/2 132/2/2
f 130/1/2 131/1/2 133/1/2
f 132/2/2 130/2/2 133/2/2
f 131/2/2 128/2/2 134/2/2
f 133/1/2 131/1/2 134/1/2
f 134/2/2 128/2/2 135/2/2
f 125/2/2 132/2/2 136/2/2
f 136/2/2 132/2/2 137/2/2
f 133/1/2 134/1/2 138/1/2
f 138/1/2 134/1/2 139/1/2
f 135/2/2 128/2/2 140/2/2
f 140/2/2 128/2/2 141/2/2
f 137/2/2 138/2/2 142/2/2
f 138/1/2 139/1/2 143/1/2
f 142/2/2 138/2/2 143/2/2
f 139/2/2 140/2/2 144/2/2
f 143/1/2 139/1/2 144/1/2
f 144/2/2 140/2/2 145/2/2
f 149/2/3 147/2/3 146/2/3
f 150/2/3 147/2/3 149/2/3
f 152/1/3 149/1/3 148/1/3
f 153/2/3 151/2/3 150/2/3
f 153/1/3 149/1/3 152/1/3
f 153/2/3 150/2/3 149/2/3
f 154/2/3 151/2/3 153/2/3
f 155/2/3 153/2/3 152/2/3
f 155/1/3 154/1/3 153/1/3
f 156/2/3 151/2/3 154/2/3
f 156/1/3 154/1/3 155/1/3
f 157/2/3 155/2/3 152/2/3
f 157/2/3 156/2/3 155/2/3
f 158/2/3 156/2/3 157/2/3
f 159/2/3 151/2/3 156/2/3
f 159/2/3 156/2/3 158/2/3
f 160/2/3 151/2/3 159/2/3
f 161/1/3 159/1/3 158/1/3
f 162/1/3 159/1/3 161/1/3
f 166/1/3 164/1/3 163/1/3
f 167/1/3 164/1/3 166/1/3
f 169/2/3 166/2/3 165/2/3
f 170/2/3 166/2/3 169/2/3
f 171/2/3 168/2/3 167/2/3
f 172/2/3 168/2/3 171/2/3
f 177/1/3 174/1/3 173/1/3
f 178/1/3 174/1/3 177/1/3
f 179/1/3 176/1/3 175/1/3
f 180/1/3 176/1/3 179/1/3
f 181/2/3 179/2/3 178/2/3
f 182/2/3 179/2/3 181/2/3
f 187/2/3 184/2/3 183/2/3
f 188/2/3 184/2/3 187/2/3
f 189/1/3 186/1/3 185/1/3
f 190/1/3 186/1/3 189/1/3
f 193/3/3 192/3/3 191/3/3
f 194/3/3 192/3/3 193/3/3
f 199/1/3 196/1/3 195/1/3
f 200/1/3 196/1/3 199/1/3
f 201/2/3 198/2/3 197/2/3
f 202/2/3 198/2/3 201/2/3
f 205/3/3 204/3/3 203/3/3
f 206/3/3 204/3/3 205/3/3
f 207/3/3 204/3/3 206/3/3
f 208/2/3 206/2/3 205/2/3
f 209/2/3 206/2/3 208/2/3
f 212/1/3 211/1/3 210/1/3
f 213/1/3 211/1/3 212/1/3
f 216/2/3 215/2/3 214/2/3
f 217/2/3 215/2/3 216/2/3
f 218/2/4 219/2/4 220/2/4
f 220/2/4 219/2/4 221/2/4
f 222/3/4 223/3/4 225/3/4
f 225/3/4 223/3/4 226/3/4
f 224/3/4 225/3/4 228/3/4
f 228/3/4 225/3/4 229/3/4
f 227/2/4 228/2/4 230/2/4
f 230/2/4 228/2/4 231/2/4
f 232/1/4 233/1/4 234/1/4
f 234/1/4 233/1/4 235/1/4
f 236/1/4 237/1/4 240/1/4
f 240/1/4 237/1/4 241/1/4
f 238/2/4 239/2/4 242/2/4
f 242/2/4 239/2/4 243/2/4
f 244/2/4 245/2/4 246/2/4
f 246/2/4 245/2/4 247/2/4
f 248/2/4 249/2/4 252/2/4
f 252/2/4 249/2/4 253/2/4
f 250/2/4 251/2/4 254/2/4
f 254/2/4 251/2/4 255/2/4
f 256/2/4 257/2/4 259/2/4
f 259/2/4 257/2/4 260/2/4
f 258/2/4 259/2/4 262/2/4
f 262/2/4 259/2/4 263/2/4
f 260/1/4 261/1/4 264/1/4
f 264/1/4 261/1/4 265/1/4
f 266/2/4 267/2/4 270/2/4
f 270/2/4 267/2/4 271/2/4
f 268/2/4 269/2/4 272/2/4
f 272/2/4 269/2/4 273/2/4
f 271/2/4 272/2/4 274/2/4
f 274/2/4 272/2/4 275/2/4
f 276/1/4 277/1/4 279/1/4
f 279/1/4 277/1/4 280/1/4
f 278/2/4 279/2/4 282/2/4
f 280/2/4 281/2/4 282/2/4
f 279/2/4 280/2/4 282/2/4
f 282/2/4 281/2/4 283/2/4
f 278/2/4 282/2/4 284/2/4
f 282/1/4 283/1/4 285/1/4
f 284/2/4 282/2/4 285/2/4
f 285/1/4 283/1/4 286/1/4
f 284/1/4 285/1/4 287/1/4
f 287/1/4 285/1/4 288/1/4
f 285/2/4 286/2/4 289/2/4
f 288/1/4 285/1/4 289/1/4
f 289/2/4 286/2/4 290/2/4
f 288/2/4 289/2/4 291/2/4
f 291/2/4 289/2/4 292/2/4
f 297/1/5 294/1/5 293/1/5
f 298/2/5 295/2/5 294/2/5
f 298/1/5 294/1/5 297/1/5
f 299/2/5 295/2/5 298/2/5
f 302/2/5 297/2/5 296/2/5
f 302/2/5 298/2/5 297/2/5
f 302/2/5 299/2/5 298/2/5
f 303/1/5 300/1/5 299/1/5
f 303/2/5 299/2/5 302/2/5
f 304/1/5 300/1/5 303/1/5
f 306/2/5 302/2/5 301/2/5
f 306/1/5 305/1/5 304/1/5
f 306/2/5 304/2/5 303/2/5
f 306/2/5 303/2/5 302/2/5
f 307/1/5 305/1/5 306/1/5
f 308/2/5 306/2/5 301/2/5
f 308/2/5 307/2/5 306/2/5
f 309/2/5 307/2/5 308/2/5
f 310/1/5 309/1/5 308/1/5
f 311/2/5 307/2/5 309/2/5
f 311/1/5 309/1/5 310/1/5
f 312/2/5 307/2/5 311/2/5
f 313/2/5 307/2/5 312/2/5
f 314/2/5 312/2/5 311/2/5
f 315/2/5 312/2/5 314/2/5
f 316/2/5 312/2/5 315/2/5
f 317/2/5 312/2/5 316/2/5
f 318/2/5 312/2/5 317/2/5
f 319/2/5 316/2/5 315/2/5
f 320/1/5 317/1/5 316/1/5
f 320/2/5 316/2/5 319/2/5
f 321/1/5 317/1/5 320/1/5
f 327/2/5 323/2/5 322/2/5
f 328/2/5 323/2/5 327/2/5
f 329/1/5 325/1/5 324/1/5
f 330/1/5 325/1/5 329/1/5
f 332/1/5 327/1/5 326/1/5
f 333/1/5 327/1/5 332/1/5
f 334/2/5 331/2/5 330/2/5
f 335/2/5 331/2/5 334/2/5
f 340/2/5 337/2/5 336/2/5
f 341/2/5 337/2/5 340/2/5
f 344/2/5 339/2/5 338/2/5
f 345/2/5 339/2/5 344/2/5
f 346/1/5 342/1/5 341/1/5
f 347/1/5 342/1/5 346/1/5
f 348/2/5 344/2/5 343/2/5
f 349/2/5 344/2/5 348/2/5
f 352/2/5 351/2/5 350/2/5
f 353/2/5 351/2/5 352/2/5
f 356/2/5 355/2/5 354/2/5
f 357/2/5 355/2/5 356/2/5
f 360/3/5 359/3/5 358/3/5
f 361/3/5 360/3/5 358/3/5
f 362/3/5 360/3/5 361/3/5
f 363/2/6 364/2/6 365/2/6
f 365/2/6 364/2/6 366/2/6
f 367/2/6 368/2/6 369/2/6
f 369/2/6 368/2/6 370/2/6
f 371/2/6 372/2/6 376/2/6
f 376/2/6 372/2/6 377/2/6
f 373/1/6 374/1/6 378/1/6
f 378/1/6 374/1/6 379/1/6
f 375/1/6 376/1/6 381/1/6
f 381/1/6 376/1/6 382/1/6
f 379/2/6 380/2/6 383/2/6
f 383/2/6 380/2/6 384/2/6
f 385/2/6 386/2/6 389/2/6
f 389/2/6 386/2/6 390/2/6
f 387/2/6 388/2/6 393/2/6
f 393/2/6 388/2/6 394/2/6
f 390/1/6 391/1/6 395/1/6
f 395/1/6 391/1/6 396/1/6
f 392/2/6 393/2/6 397/2/6
f 397/2/6 393/2/6 398/2/6
f 399/2/6 400/2/6 402/2/6
f 402/2/6 400/2/6 403/2/6
f 401/2/6 402/2/6 406/2/6
f 402/2/6 403/2/6 406/2/6
f 406/2/6 403/2/6 407/2/6
f 403/1/6 404/1/6 408/1/6
f 407/2/6 403/2/6 408/2/6
f 408/1/6 404/1/6 409/1/6
f 406/1/6 407/1/6 411/1/6
f 405/1/6 406/1/6 411/1/6
f 409/2/6 410/2/6 412/2/6
f 411/1/6 407/1/6 412/1/6
f 408/2/6 409/2/6 412/2/6
f 407/2/6 408/2/6 412/2/6
f 412/2/6 410/2/6 413/2/6
f 413/2/6 410/2/6 414/2/6
f 414/2/6 410/2/6 415/2/6
f 415/2/6 410/2/6 416/2/6
f 416/2/6 410/2/6 417/2/6
f 411/2/6 412/2/6 418/2/6
f 412/2/6 413/2/6 418/2/6
f 415/2/6 416/2/6 420/2/6
f 416/1/6 417/1/6 421/1/6
f 420/2/6 416/2/6 421/2/6
f 421/1/6 417/1/6 422/1/6
f 411/2/6 418/2/6 423/2/6
f 423/2/6 418/2/6 424/2/6
f 424/2/6 418/2/6 425/2/6
f 425/2/6 418/2/6 426/2/6
f 419/2/6 420/2/6 427/2/6
f 420/2/6 421/2/6 427/2/6
f 421/2/6 422/2/6 427/2/6
f 427/2/6 422/2/6 428/2/6
f 428/2/6 422/2/6 429/2/6
f 424/1/6 425/1/6 430/1/6
f 425/2/6 426/2/6 431/2/6
f 430/1/6 425/1/6 431/1/6
f 427/2/6 428/2/6 431/2/6
f 426/2/6 427/2/6 431/2/6
f 431/2/6 428/2/6 432/2/6
f 432/2/6 428/2/6 433/2/6
f 433/2/6 428/2/6 434/2/6
f 434/2/6 428/2/6 435/2/6
f 431/2/6 432/2/6 436/2/6
f 432/1/6 433/1/6 437/1/6
f 436/2/6 432/2/6 437/2/6
f 433/2/6 434/2/6 438/2/6
f 437/1/6 433/1/6 438/1/6
f 438/2/6 434/2/6 439/2/6
f 440/2/6 441/2/6 443/2/6
f 443/2/6 441/2/6 444/2/6
f 442/2/6 443/2/6 445/2/6
f 445/2/6 443/2/6 446/2/6
f 447/3/6 448/3/6 449/3/6
f 449/3/6 448/3/6 450/3/6
f 451/3/6 452/3/6 453/3/6
f 453/3/6 452/3/6 454/3/6
