# MagicaVoxel @ Ephtracy

# material
mtllib Rocks1.mtl
usemtl palette

# normals
vn -1 0 0
vn 1 0 0
vn 0 0 1
vn 0 0 -1
vn 0 -1 0
vn 0 1 0

# texcoords
vt 0.931641 0.5
vt 0.982422 0.5

# verts
v -3 0 -0
v -3 0 -1
v -3 0 -2
v -3 1 -0
v -3 1 -1
v -3 1 -2
v -2 0 3
v -2 0 2
v -2 1 3
v -2 1 2
v 0 0 -0
v 0 0 -2
v 0 0 -3
v 0 1 -0
v 0 1 -2
v 0 1 -3
v -1 0 -0
v -1 0 -2
v -1 1 -0
v -1 1 -2
v 1 0 3
v 1 0 2
v 1 1 3
v 1 1 2
v 3 0 -0
v 3 0 -3
v 3 1 -0
v 3 1 -3
v -2 0 3
v -2 1 3
v -1 0 3
v -1 1 3
v 1 0 3
v 1 1 3
v -3 0 -0
v -3 1 -0
v -2 0 -0
v -2 1 -0
v -1 0 -0
v -1 1 -0
v 0 0 -0
v 0 1 -0
v 2 0 -0
v 2 1 -0
v 3 0 -0
v 3 1 -0
v -2 0 2
v -2 1 2
v -1 0 2
v -1 1 2
v 1 0 2
v 1 1 2
v -3 0 -2
v -3 1 -2
v -1 0 -2
v -1 1 -2
v 0 0 -3
v 0 1 -3
v 3 0 -3
v 3 1 -3
v -2 0 3
v -1 0 3
v 1 0 3
v -2 0 2
v -1 0 2
v 1 0 2
v -3 0 -0
v -2 0 -0
v -1 0 -0
v 0 0 -0
v 2 0 -0
v 3 0 -0
v -3 0 -1
v -2 0 -1
v -3 0 -2
v -1 0 -2
v 0 0 -2
v 2 0 -2
v 0 0 -3
v 3 0 -3
v -2 1 3
v -1 1 3
v 1 1 3
v -2 1 2
v -1 1 2
v 1 1 2
v -3 1 -0
v -2 1 -0
v -1 1 -0
v 0 1 -0
v 2 1 -0
v 3 1 -0
v -3 1 -1
v -2 1 -1
v -3 1 -2
v -1 1 -2
v 0 1 -2
v 2 1 -2
v 0 1 -3
v 3 1 -3

# faces
f 4/1/1 2/1/1 1/1/1
f 5/2/1 3/2/1 2/2/1
f 5/1/1 2/1/1 4/1/1
f 6/2/1 3/2/1 5/2/1
f 9/1/1 8/1/1 7/1/1
f 10/1/1 8/1/1 9/1/1
f 14/1/1 12/1/1 11/1/1
f 15/2/1 13/2/1 12/2/1
f 15/1/1 12/1/1 14/1/1
f 16/2/1 13/2/1 15/2/1
f 17/2/2 18/2/2 19/2/2
f 19/2/2 18/2/2 20/2/2
f 21/2/2 22/2/2 23/2/2
f 23/2/2 22/2/2 24/2/2
f 25/2/2 26/2/2 27/2/2
f 27/2/2 26/2/2 28/2/2
f 31/1/3 30/1/3 29/1/3
f 32/1/3 30/1/3 31/1/3
f 33/2/3 32/2/3 31/2/3
f 34/2/3 32/2/3 33/2/3
f 37/1/3 36/1/3 35/1/3
f 38/1/3 36/1/3 37/1/3
f 39/2/3 38/2/3 37/2/3
f 40/2/3 38/2/3 39/2/3
f 43/1/3 42/1/3 41/1/3
f 44/1/3 42/1/3 43/1/3
f 45/2/3 44/2/3 43/2/3
f 46/2/3 44/2/3 45/2/3
f 47/1/4 48/1/4 49/1/4
f 49/1/4 48/1/4 50/1/4
f 49/2/4 50/2/4 51/2/4
f 51/2/4 50/2/4 52/2/4
f 53/2/4 54/2/4 55/2/4
f 55/2/4 54/2/4 56/2/4
f 57/2/4 58/2/4 59/2/4
f 59/2/4 58/2/4 60/2/4
f 64/1/5 62/1/5 61/1/5
f 65/2/5 63/2/5 62/2/5
f 65/1/5 62/1/5 64/1/5
f 66/2/5 63/2/5 65/2/5
f 73/1/5 68/1/5 67/1/5
f 74/2/5 69/2/5 68/2/5
f 74/1/5 68/1/5 73/1/5
f 75/2/5 74/2/5 73/2/5
f 76/2/5 69/2/5 74/2/5
f 76/2/5 74/2/5 75/2/5
f 77/1/5 71/1/5 70/1/5
f 78/2/5 72/2/5 71/2/5
f 78/1/5 71/1/5 77/1/5
f 79/2/5 78/2/5 77/2/5
f 80/2/5 72/2/5 78/2/5
f 80/2/5 78/2/5 79/2/5
f 81/1/6 82/1/6 84/1/6
f 82/2/6 83/2/6 85/2/6
f 84/1/6 82/1/6 85/1/6
f 85/2/6 83/2/6 86/2/6
f 87/1/6 88/1/6 93/1/6
f 88/2/6 89/2/6 94/2/6
f 93/1/6 88/1/6 94/1/6
f 93/2/6 94/2/6 95/2/6
f 94/2/6 89/2/6 96/2/6
f 95/2/6 94/2/6 96/2/6
f 90/1/6 91/1/6 97/1/6
f 91/2/6 92/2/6 98/2/6
f 97/1/6 91/1/6 98/1/6
f 97/2/6 98/2/6 99/2/6
f 98/2/6 92/2/6 100/2/6
f 99/2/6 98/2/6 100/2/6
