# MagicaVoxel @ Ephtracy

# material
mtllib Acorn.mtl
usemtl palette

# normals
vn -1 0 0
vn 1 0 0
vn 0 0 1
vn 0 0 -1
vn 0 -1 0
vn 0 1 0

# texcoords
vt 0.271484 0.5
vt 0.357422 0.5
vt 0.396484 0.5
vt 0.419922 0.5

# verts
v -2.5 5 1.5
v -2.5 5 0.5
v -2.5 5 -0.5
v -2.5 5 -1.5
v -2.5 6 1.5
v -2.5 6 0.5
v -2.5 6 -0.5
v -2.5 6 -1.5
v -1.5 1 0.5
v -1.5 1 -0.5
v -1.5 2 1.5
v -1.5 2 0.5
v -1.5 2 -0.5
v -1.5 2 -1.5
v -1.5 5 2.5
v -1.5 5 1.5
v -1.5 5 0.5
v -1.5 5 -0.5
v -1.5 5 -1.5
v -1.5 5 -2.5
v -1.5 6 2.5
v -1.5 6 1.5
v -1.5 6 -1.5
v -1.5 6 -2.5
v -0.5 0 0.5
v -0.5 0 -0.5
v -0.5 1 1.5
v -0.5 1 0.5
v -0.5 1 -0.5
v -0.5 1 -1.5
v -0.5 2 1.5
v -0.5 2 0.5
v -0.5 2 -0.5
v -0.5 2 -1.5
v -0.5 6 0.5
v -0.5 6 -0.5
v -0.5 7 1.5
v -0.5 7 0.5
v -0.5 7 -0.5
v -0.5 8 1.5
v -0.5 8 0.5
v 0.5 0 0.5
v 0.5 0 -0.5
v 0.5 1 1.5
v 0.5 1 0.5
v 0.5 1 -0.5
v 0.5 1 -1.5
v 0.5 2 1.5
v 0.5 2 0.5
v 0.5 2 -0.5
v 0.5 2 -1.5
v 0.5 6 0.5
v 0.5 6 -0.5
v 0.5 7 1.5
v 0.5 7 0.5
v 0.5 7 -0.5
v 0.5 8 1.5
v 0.5 8 0.5
v 1.5 1 0.5
v 1.5 1 -0.5
v 1.5 2 1.5
v 1.5 2 0.5
v 1.5 2 -0.5
v 1.5 2 -1.5
v 1.5 5 2.5
v 1.5 5 1.5
v 1.5 5 0.5
v 1.5 5 -0.5
v 1.5 5 -1.5
v 1.5 5 -2.5
v 1.5 6 2.5
v 1.5 6 1.5
v 1.5 6 -1.5
v 1.5 6 -2.5
v 2.5 5 1.5
v 2.5 5 0.5
v 2.5 5 -0.5
v 2.5 5 -1.5
v 2.5 6 1.5
v 2.5 6 0.5
v 2.5 6 -0.5
v 2.5 6 -1.5
v -1.5 5 2.5
v -1.5 6 2.5
v -0.5 5 2.5
v -0.5 6 2.5
v 0.5 5 2.5
v 0.5 6 2.5
v 1.5 5 2.5
v 1.5 6 2.5
v -2.5 5 1.5
v -2.5 6 1.5
v -1.5 2 1.5
v -1.5 5 1.5
v -1.5 6 1.5
v -0.5 1 1.5
v -0.5 2 1.5
v -0.5 5 1.5
v -0.5 7 1.5
v -0.5 8 1.5
v 0.5 1 1.5
v 0.5 2 1.5
v 0.5 5 1.5
v 0.5 7 1.5
v 0.5 8 1.5
v 1.5 2 1.5
v 1.5 5 1.5
v 1.5 6 1.5
v 2.5 5 1.5
v 2.5 6 1.5
v -1.5 1 0.5
v -1.5 2 0.5
v -0.5 0 0.5
v -0.5 1 0.5
v -0.5 2 0.5
v -0.5 6 0.5
v -0.5 7 0.5
v 0.5 0 0.5
v 0.5 1 0.5
v 0.5 2 0.5
v 0.5 6 0.5
v 0.5 7 0.5
v 1.5 1 0.5
v 1.5 2 0.5
v -0.5 7 0.5
v -0.5 8 0.5
v 0.5 7 0.5
v 0.5 8 0.5
v -1.5 1 -0.5
v -1.5 2 -0.5
v -0.5 0 -0.5
v -0.5 1 -0.5
v -0.5 2 -0.5
v -0.5 6 -0.5
v -0.5 7 -0.5
v 0.5 0 -0.5
v 0.5 1 -0.5
v 0.5 2 -0.5
v 0.5 6 -0.5
v 0.5 7 -0.5
v 1.5 1 -0.5
v 1.5 2 -0.5
v -2.5 5 -1.5
v -2.5 6 -1.5
v -1.5 2 -1.5
v -1.5 5 -1.5
v -1.5 6 -1.5
v -0.5 1 -1.5
v -0.5 2 -1.5
v -0.5 5 -1.5
v 0.5 1 -1.5
v 0.5 2 -1.5
v 0.5 5 -1.5
v 1.5 2 -1.5
v 1.5 5 -1.5
v 1.5 6 -1.5
v 2.5 5 -1.5
v 2.5 6 -1.5
v -1.5 5 -2.5
v -1.5 6 -2.5
v -0.5 5 -2.5
v -0.5 6 -2.5
v 0.5 5 -2.5
v 0.5 6 -2.5
v 1.5 5 -2.5
v 1.5 6 -2.5
v -0.5 0 0.5
v 0.5 0 0.5
v -0.5 0 -0.5
v 0.5 0 -0.5
v -0.5 1 1.5
v 0.5 1 1.5
v -1.5 1 0.5
v -0.5 1 0.5
v 0.5 1 0.5
v 1.5 1 0.5
v -1.5 1 -0.5
v -0.5 1 -0.5
v 0.5 1 -0.5
v 1.5 1 -0.5
v -0.5 1 -1.5
v 0.5 1 -1.5
v -1.5 2 1.5
v -0.5 2 1.5
v 0.5 2 1.5
v 1.5 2 1.5
v -1.5 2 0.5
v -0.5 2 0.5
v 0.5 2 0.5
v 1.5 2 0.5
v -1.5 2 -0.5
v -0.5 2 -0.5
v 0.5 2 -0.5
v 1.5 2 -0.5
v -1.5 2 -1.5
v -0.5 2 -1.5
v 0.5 2 -1.5
v 1.5 2 -1.5
v -1.5 5 2.5
v -0.5 5 2.5
v 0.5 5 2.5
v 1.5 5 2.5
v -2.5 5 1.5
v -1.5 5 1.5
v -0.5 5 1.5
v 0.5 5 1.5
v 1.5 5 1.5
v 2.5 5 1.5
v -2.5 5 0.5
v -1.5 5 0.5
v 1.5 5 0.5
v 2.5 5 0.5
v -2.5 5 -0.5
v -1.5 5 -0.5
v 1.5 5 -0.5
v 2.5 5 -0.5
v -2.5 5 -1.5
v -1.5 5 -1.5
v -0.5 5 -1.5
v 0.5 5 -1.5
v 1.5 5 -1.5
v 2.5 5 -1.5
v -1.5 5 -2.5
v -0.5 5 -2.5
v 0.5 5 -2.5
v 1.5 5 -2.5
v -0.5 7 1.5
v 0.5 7 1.5
v -0.5 7 0.5
v 0.5 7 0.5
v -1.5 6 2.5
v -0.5 6 2.5
v 0.5 6 2.5
v 1.5 6 2.5
v -2.5 6 1.5
v -1.5 6 1.5
v -0.5 6 1.5
v 0.5 6 1.5
v 1.5 6 1.5
v 2.5 6 1.5
v -2.5 6 0.5
v -1.5 6 0.5
v -0.5 6 0.5
v 0.5 6 0.5
v 1.5 6 0.5
v 2.5 6 0.5
v -2.5 6 -0.5
v -1.5 6 -0.5
v -0.5 6 -0.5
v 0.5 6 -0.5
v 1.5 6 -0.5
v 2.5 6 -0.5
v -2.5 6 -1.5
v -1.5 6 -1.5
v -0.5 6 -1.5
v 0.5 6 -1.5
v 1.5 6 -1.5
v 2.5 6 -1.5
v -1.5 6 -2.5
v -0.5 6 -2.5
v 0.5 6 -2.5
v 1.5 6 -2.5
v -0.5 7 0.5
v 0.5 7 0.5
v -0.5 7 -0.5
v 0.5 7 -0.5
v -0.5 8 1.5
v 0.5 8 1.5
v -0.5 8 0.5
v 0.5 8 0.5

# faces
f 5/3/1 2/3/1 1/3/1
f 6/4/1 3/4/1 2/4/1
f 6/3/1 2/3/1 5/3/1
f 7/3/1 4/3/1 3/3/1
f 7/4/1 3/4/1 6/4/1
f 8/3/1 4/3/1 7/3/1
f 12/1/1 10/1/1 9/1/1
f 13/1/1 10/1/1 12/1/1
f 16/1/1 12/1/1 11/1/1
f 16/1/1 14/1/1 13/1/1
f 16/1/1 13/1/1 12/1/1
f 17/1/1 14/1/1 16/1/1
f 18/1/1 14/1/1 17/1/1
f 19/1/1 14/1/1 18/1/1
f 21/3/1 16/3/1 15/3/1
f 22/3/1 16/3/1 21/3/1
f 23/3/1 20/3/1 19/3/1
f 24/3/1 20/3/1 23/3/1
f 28/1/1 26/1/1 25/1/1
f 29/1/1 26/1/1 28/1/1
f 31/1/1 28/1/1 27/1/1
f 32/1/1 28/1/1 31/1/1
f 33/1/1 30/1/1 29/1/1
f 34/1/1 30/1/1 33/1/1
f 38/2/1 36/2/1 35/2/1
f 39/2/1 36/2/1 38/2/1
f 40/2/1 38/2/1 37/2/1
f 41/2/1 38/2/1 40/2/1
f 42/1/2 43/1/2 45/1/2
f 45/1/2 43/1/2 46/1/2
f 44/1/2 45/1/2 48/1/2
f 48/1/2 45/1/2 49/1/2
f 46/1/2 47/1/2 50/1/2
f 50/1/2 47/1/2 51/1/2
f 52/2/2 53/2/2 55/2/2
f 55/2/2 53/2/2 56/2/2
f 54/2/2 55/2/2 57/2/2
f 57/2/2 55/2/2 58/2/2
f 59/1/2 60/1/2 62/1/2
f 62/1/2 60/1/2 63/1/2
f 61/1/2 62/1/2 66/1/2
f 63/1/2 64/1/2 66/1/2
f 62/1/2 63/1/2 66/1/2
f 66/1/2 64/1/2 67/1/2
f 67/1/2 64/1/2 68/1/2
f 68/1/2 64/1/2 69/1/2
f 65/3/2 66/3/2 71/3/2
f 71/3/2 66/3/2 72/3/2
f 69/3/2 70/3/2 73/3/2
f 73/3/2 70/3/2 74/3/2
f 75/3/2 76/3/2 79/3/2
f 76/4/2 77/4/2 80/4/2
f 79/3/2 76/3/2 80/3/2
f 77/3/2 78/3/2 81/3/2
f 80/4/2 77/4/2 81/4/2
f 81/3/2 78/3/2 82/3/2
f 85/3/3 84/3/3 83/3/3
f 86/3/3 84/3/3 85/3/3
f 87/4/3 86/4/3 85/4/3
f 88/4/3 86/4/3 87/4/3
f 89/3/3 88/3/3 87/3/3
f 90/3/3 88/3/3 89/3/3
f 94/3/3 92/3/3 91/3/3
f 95/3/3 92/3/3 94/3/3
f 97/1/3 94/1/3 93/1/3
f 98/1/3 94/1/3 97/1/3
f 101/1/3 98/1/3 97/1/3
f 101/1/3 97/1/3 96/1/3
f 102/1/3 98/1/3 101/1/3
f 103/1/3 98/1/3 102/1/3
f 104/2/3 100/2/3 99/2/3
f 105/2/3 100/2/3 104/2/3
f 106/1/3 103/1/3 102/1/3
f 107/1/3 103/1/3 106/1/3
f 109/3/3 108/3/3 107/3/3
f 110/3/3 108/3/3 109/3/3
f 114/1/3 112/1/3 111/1/3
f 115/1/3 112/1/3 114/1/3
f 118/1/3 114/1/3 113/1/3
f 119/1/3 114/1/3 118/1/3
f 121/2/3 117/2/3 116/2/3
f 122/2/3 117/2/3 121/2/3
f 123/1/3 120/1/3 119/1/3
f 124/1/3 120/1/3 123/1/3
f 125/2/4 126/2/4 127/2/4
f 127/2/4 126/2/4 128/2/4
f 129/1/4 130/1/4 132/1/4
f 132/1/4 130/1/4 133/1/4
f 131/1/4 132/1/4 136/1/4
f 136/1/4 132/1/4 137/1/4
f 134/2/4 135/2/4 139/2/4
f 139/2/4 135/2/4 140/2/4
f 137/1/4 138/1/4 141/1/4
f 141/1/4 138/1/4 142/1/4
f 143/3/4 144/3/4 146/3/4
f 146/3/4 144/3/4 147/3/4
f 145/1/4 146/1/4 149/1/4
f 149/1/4 146/1/4 150/1/4
f 148/1/4 149/1/4 151/1/4
f 149/1/4 150/1/4 151/1/4
f 151/1/4 150/1/4 152/1/4
f 152/1/4 150/1/4 153/1/4
f 152/1/4 153/1/4 154/1/4
f 154/1/4 153/1/4 155/1/4
f 155/3/4 156/3/4 157/3/4
f 157/3/4 156/3/4 158/3/4
f 159/3/4 160/3/4 161/3/4
f 161/3/4 160/3/4 162/3/4
f 161/4/4 162/4/4 163/4/4
f 163/4/4 162/4/4 164/4/4
f 163/3/4 164/3/4 165/3/4
f 165/3/4 164/3/4 166/3/4
f 169/1/5 168/1/5 167/1/5
f 170/1/5 168/1/5 169/1/5
f 174/1/5 172/1/5 171/1/5
f 175/1/5 172/1/5 174/1/5
f 177/1/5 174/1/5 173/1/5
f 178/1/5 174/1/5 177/1/5
f 179/1/5 176/1/5 175/1/5
f 180/1/5 176/1/5 179/1/5
f 181/1/5 179/1/5 178/1/5
f 182/1/5 179/1/5 181/1/5
f 187/1/5 184/1/5 183/1/5
f 188/1/5 184/1/5 187/1/5
f 189/1/5 186/1/5 185/1/5
f 190/1/5 186/1/5 189/1/5
f 195/1/5 192/1/5 191/1/5
f 196/1/5 192/1/5 195/1/5
f 197/1/5 194/1/5 193/1/5
f 198/1/5 194/1/5 197/1/5
f 204/3/5 200/3/5 199/3/5
f 205/4/5 201/4/5 200/4/5
f 205/3/5 200/3/5 204/3/5
f 206/3/5 202/3/5 201/3/5
f 206/4/5 201/4/5 205/4/5
f 207/3/5 202/3/5 206/3/5
f 209/3/5 204/3/5 203/3/5
f 210/3/5 204/3/5 209/3/5
f 211/3/5 208/3/5 207/3/5
f 212/3/5 208/3/5 211/3/5
f 213/4/5 210/4/5 209/4/5
f 214/4/5 210/4/5 213/4/5
f 215/4/5 212/4/5 211/4/5
f 216/4/5 212/4/5 215/4/5
f 217/3/5 214/3/5 213/3/5
f 218/3/5 214/3/5 217/3/5
f 221/3/5 216/3/5 215/3/5
f 222/3/5 216/3/5 221/3/5
f 223/3/5 219/3/5 218/3/5
f 224/4/5 220/4/5 219/4/5
f 224/3/5 219/3/5 223/3/5
f 225/3/5 221/3/5 220/3/5
f 225/4/5 220/4/5 224/4/5
f 226/3/5 221/3/5 225/3/5
f 229/2/5 228/2/5 227/2/5
f 230/2/5 228/2/5 229/2/5
f 231/3/6 232/3/6 236/3/6
f 232/4/6 233/4/6 237/4/6
f 236/3/6 232/3/6 237/3/6
f 233/3/6 234/3/6 238/3/6
f 237/4/6 233/4/6 238/4/6
f 238/3/6 234/3/6 239/3/6
f 235/3/6 236/3/6 241/3/6
f 236/4/6 237/4/6 242/4/6
f 241/3/6 236/3/6 242/3/6
f 237/3/6 238/3/6 243/3/6
f 242/4/6 237/4/6 243/4/6
f 238/4/6 239/4/6 244/4/6
f 243/3/6 238/3/6 244/3/6
f 239/3/6 240/3/6 245/3/6
f 244/4/6 239/4/6 245/4/6
f 245/3/6 240/3/6 246/3/6
f 241/4/6 242/4/6 247/4/6
f 242/3/6 243/3/6 248/3/6
f 247/4/6 242/4/6 248/4/6
f 248/3/6 243/3/6 249/3/6
f 244/3/6 245/3/6 250/3/6
f 245/4/6 246/4/6 251/4/6
f 250/3/6 245/3/6 251/3/6
f 251/4/6 246/4/6 252/4/6
f 247/3/6 248/3/6 253/3/6
f 248/4/6 249/4/6 254/4/6
f 253/3/6 248/3/6 254/3/6
f 249/3/6 250/3/6 255/3/6
f 254/4/6 249/4/6 255/4/6
f 250/4/6 251/4/6 256/4/6
f 255/3/6 250/3/6 256/3/6
f 251/3/6 252/3/6 257/3/6
f 256/4/6 251/4/6 257/4/6
f 257/3/6 252/3/6 258/3/6
f 254/3/6 255/3/6 259/3/6
f 255/4/6 256/4/6 260/4/6
f 259/3/6 255/3/6 260/3/6
f 256/3/6 257/3/6 261/3/6
f 260/4/6 256/4/6 261/4/6
f 261/3/6 257/3/6 262/3/6
f 263/2/6 264/2/6 265/2/6
f 265/2/6 264/2/6 266/2/6
f 267/2/6 268/2/6 269/2/6
f 269/2/6 268/2/6 270/2/6
