# MagicaVoxel @ Ephtracy

# material
mtllib Spruce0.mtl
usemtl palette

# normals
vn -1 0 0
vn 1 0 0
vn 0 0 1
vn 0 0 -1
vn 0 -1 0
vn 0 1 0

# texcoords
vt 0.263672 0.5
vt 0.568359 0.5
vt 0.572266 0.5

# verts
v -2 5 -0
v -2 5 -1
v -2 6 -1
v -2 6 -2
v -2 7 1
v -2 7 -0
v -2 7 -2
v -2 7 -3
v -2 8 -0
v -2 8 -1
v -2 8 -2
v -2 8 -3
v -2 9 1
v -2 9 -0
v -2 9 -1
v -2 9 -2
v -2 10 -1
v -2 10 -2
v -1 0 -1
v -1 0 -2
v -1 1 -1
v -1 1 -2
v -1 5 -1
v -1 5 -2
v -1 5 -3
v -1 5 -4
v -1 6 -1
v -1 6 -2
v -1 7 -3
v -1 8 -2
v -1 8 -3
v -1 8 -4
v -1 9 1
v -1 9 -0
v -1 9 -1
v -1 9 -2
v -1 9 -3
v -1 9 -4
v -1 10 1
v -1 10 -0
v -1 10 -1
v -1 10 -2
v -1 11 1
v -1 11 -0
v -1 11 -2
v -1 11 -3
v -1 12 -0
v -1 12 -1
v -1 12 -2
v -1 12 -3
v -1 13 -1
v -1 13 -2
v -1 14 -1
v -1 14 -2
v 0 0 -0
v 0 0 -1
v 0 1 -1
v 0 1 -2
v 0 2 -0
v 0 2 -1
v 0 5 -1
v 0 5 -2
v 0 6 -0
v 0 6 -1
v 0 7 1
v 0 7 -0
v 0 7 -1
v 0 8 1
v 0 8 -0
v 0 9 -3
v 0 9 -4
v 0 10 -3
v 0 10 -4
v 0 11 1
v 0 11 -0
v 0 12 1
v 0 12 -0
v 0 12 -1
v 0 12 -2
v 0 12 -3
v 0 13 -1
v 0 13 -2
v 0 13 -3
v 0 14 -0
v 0 14 -1
v 0 14 -2
v 0 15 -1
v 0 15 -2
v 1 0 -2
v 1 0 -3
v 1 1 -2
v 1 1 -3
v 1 5 -0
v 1 5 -1
v 1 6 1
v 1 6 -0
v 1 6 -1
v 1 7 1
v 1 7 -0
v 1 10 -3
v 1 10 -4
v 1 11 -3
v 1 11 -4
v 2 4 -0
v 2 4 -1
v 2 4 -3
v 2 4 -4
v 2 5 -0
v 2 5 -1
v 2 5 -2
v 2 5 -3
v 2 7 -2
v 2 7 -3
v 2 8 -3
v 2 8 -4
v -1 5 -0
v -1 5 -1
v -1 7 1
v -1 7 -0
v -1 7 -1
v -1 8 1
v -1 8 -0
v 0 5 -3
v 0 5 -4
v 0 7 -3
v 0 8 -3
v 0 8 -4
v 1 0 -0
v 1 0 -1
v 1 2 -0
v 1 2 -1
v 1 2 -2
v 1 5 -1
v 1 5 -2
v 1 11 1
v 1 11 -0
v 1 12 1
v 1 12 -0
v 1 12 -1
v 1 13 -1
v 1 13 -2
v 1 14 -0
v 1 14 -1
v 1 15 -1
v 1 15 -2
v 2 0 -1
v 2 0 -3
v 2 1 -2
v 2 1 -3
v 2 2 -1
v 2 2 -2
v 2 5 -1
v 2 5 -2
v 2 6 1
v 2 6 -0
v 2 6 -1
v 2 6 -2
v 2 8 -3
v 2 8 -4
v 2 9 -0
v 2 9 -1
v 2 10 -3
v 2 10 -4
v 2 11 1
v 2 11 -0
v 2 11 -1
v 2 11 -2
v 2 11 -3
v 2 11 -4
v 2 12 -0
v 2 12 -1
v 2 12 -2
v 2 12 -3
v 2 13 -1
v 2 13 -2
v 2 13 -3
v 3 4 -0
v 3 4 -1
v 3 4 -3
v 3 4 -4
v 3 5 -2
v 3 5 -3
v 3 6 -1
v 3 6 -2
v 3 7 -1
v 3 7 -2
v 3 8 -3
v 3 8 -4
v 3 9 -0
v 3 9 -1
v 3 10 -2
v 3 10 -3
v 3 11 -1
v 3 11 -2
v 3 11 -3
v -2 7 1
v -2 9 1
v -1 7 1
v -1 8 1
v -1 9 1
v -1 10 1
v -1 11 1
v 0 7 1
v 0 8 1
v 0 10 1
v 0 11 1
v 0 12 1
v 1 6 1
v 1 7 1
v 1 11 1
v 1 12 1
v 2 6 1
v 2 11 1
v -2 5 -0
v -2 7 -0
v -1 5 -0
v -1 7 -0
v -1 8 -0
v -1 11 -0
v -1 12 -0
v 0 0 -0
v 0 2 -0
v 0 6 -0
v 0 7 -0
v 0 8 -0
v 0 11 -0
v 0 12 -0
v 0 14 -0
v 1 0 -0
v 1 2 -0
v 1 5 -0
v 1 6 -0
v 1 7 -0
v 1 11 -0
v 1 12 -0
v 1 14 -0
v 2 4 -0
v 2 5 -0
v 2 6 -0
v 2 9 -0
v 2 11 -0
v 2 12 -0
v 3 4 -0
v 3 9 -0
v -2 9 -1
v -2 10 -1
v -1 0 -1
v -1 1 -1
v -1 5 -1
v -1 7 -1
v -1 9 -1
v -1 10 -1
v -1 12 -1
v -1 13 -1
v -1 14 -1
v 0 0 -1
v 0 1 -1
v 0 2 -1
v 0 5 -1
v 0 6 -1
v 0 7 -1
v 0 12 -1
v 0 13 -1
v 0 14 -1
v 0 15 -1
v 1 0 -1
v 1 2 -1
v 1 5 -1
v 1 6 -1
v 1 12 -1
v 1 13 -1
v 1 14 -1
v 1 15 -1
v 2 0 -1
v 2 2 -1
v 2 9 -1
v 2 11 -1
v 2 12 -1
v 2 13 -1
v 3 9 -1
v 3 11 -1
v 2 5 -2
v 2 6 -2
v 3 5 -2
v 3 6 -2
v -1 5 -3
v -1 7 -3
v 0 5 -3
v 0 7 -3
v 2 4 -3
v 2 5 -3
v 3 4 -3
v 3 5 -3
v -2 5 -1
v -2 6 -1
v -1 5 -1
v -1 6 -1
v 2 4 -1
v 2 5 -1
v 2 6 -1
v 3 4 -1
v 3 6 -1
v -2 6 -2
v -2 7 -2
v -2 8 -2
v -2 9 -2
v -2 10 -2
v -1 0 -2
v -1 1 -2
v -1 5 -2
v -1 6 -2
v -1 7 -2
v -1 8 -2
v -1 9 -2
v -1 10 -2
v -1 12 -2
v -1 13 -2
v -1 14 -2
v 0 1 -2
v 0 5 -2
v 0 12 -2
v 0 13 -2
v 0 14 -2
v 0 15 -2
v 1 0 -2
v 1 1 -2
v 1 2 -2
v 1 5 -2
v 1 13 -2
v 1 15 -2
v 2 1 -2
v 2 2 -2
v 2 5 -2
v 2 7 -2
v -2 7 -3
v -2 8 -3
v -1 7 -3
v -1 8 -3
v -1 9 -3
v -1 11 -3
v -1 12 -3
v 0 7 -3
v 0 8 -3
v 0 9 -3
v 0 10 -3
v 0 11 -3
v 0 12 -3
v 0 13 -3
v 1 0 -3
v 1 1 -3
v 1 10 -3
v 1 11 -3
v 1 12 -3
v 1 13 -3
v 2 0 -3
v 2 1 -3
v 2 7 -3
v 2 8 -3
v 2 10 -3
v 2 11 -3
v 2 12 -3
v 2 13 -3
v 3 8 -3
v 3 10 -3
v 3 11 -3
v -1 5 -4
v -1 8 -4
v -1 9 -4
v 0 5 -4
v 0 8 -4
v 0 9 -4
v 0 10 -4
v 1 9 -4
v 1 10 -4
v 1 11 -4
v 2 4 -4
v 2 8 -4
v 2 10 -4
v 2 11 -4
v 3 4 -4
v 3 8 -4
v 0 0 -0
v 1 0 -0
v -1 0 -1
v 0 0 -1
v 1 0 -1
v 2 0 -1
v -1 0 -2
v 1 0 -2
v 1 0 -3
v 2 0 -3
v 2 4 -0
v 3 4 -0
v 2 4 -1
v 3 4 -1
v 2 4 -3
v 3 4 -3
v 2 4 -4
v 3 4 -4
v -2 5 -0
v -1 5 -0
v 1 5 -0
v 2 5 -0
v -2 5 -1
v -1 5 -1
v 0 5 -1
v 1 5 -1
v 2 5 -1
v -1 5 -2
v 0 5 -2
v 1 5 -2
v 2 5 -2
v 3 5 -2
v -1 5 -3
v 0 5 -3
v 2 5 -3
v 3 5 -3
v -1 5 -4
v 0 5 -4
v 1 6 1
v 2 6 1
v 0 6 -0
v 1 6 -0
v 2 6 -0
v -2 6 -1
v -1 6 -1
v 0 6 -1
v 1 6 -1
v 2 6 -1
v 3 6 -1
v -2 6 -2
v -1 6 -2
v 2 6 -2
v 3 6 -2
v -2 7 1
v -1 7 1
v 0 7 1
v 1 7 1
v -2 7 -0
v -1 7 -0
v 0 7 -0
v 1 7 -0
v -1 7 -1
v 0 7 -1
v -2 7 -2
v -1 7 -2
v 2 7 -2
v -2 7 -3
v -1 7 -3
v 0 7 -3
v 2 7 -3
v -1 8 1
v 0 8 1
v -1 8 -0
v 0 8 -0
v 0 8 -3
v 2 8 -3
v 0 8 -4
v 2 8 -4
v -1 1 -1
v 0 1 -1
v -1 1 -2
v 0 1 -2
v 1 1 -2
v 2 1 -2
v 1 1 -3
v 2 1 -3
v 0 2 -0
v 1 2 -0
v 0 2 -1
v 1 2 -1
v 2 2 -1
v 1 2 -2
v 2 2 -2
v -2 8 -2
v -1 8 -2
v -2 8 -3
v -1 8 -3
v 2 8 -3
v 3 8 -3
v 2 8 -4
v 3 8 -4
v -2 9 1
v -1 9 1
v -2 9 -0
v -1 9 -0
v 2 9 -0
v 3 9 -0
v -2 9 -1
v -1 9 -1
v 2 9 -1
v 3 9 -1
v -1 9 -3
v 0 9 -3
v -1 9 -4
v 0 9 -4
v -2 10 -1
v -1 10 -1
v -2 10 -2
v -1 10 -2
v 0 10 -3
v 1 10 -3
v 0 10 -4
v 1 10 -4
v -1 11 1
v 0 11 1
v 1 11 1
v 2 11 1
v -1 11 -0
v 0 11 -0
v 1 11 -0
v 2 11 -0
v 2 11 -1
v 3 11 -1
v 2 11 -2
v 3 11 -2
v 1 11 -3
v 2 11 -3
v 3 11 -3
v 1 11 -4
v 2 11 -4
v 0 12 1
v 1 12 1
v -1 12 -0
v 0 12 -0
v 1 12 -0
v 2 12 -0
v -1 12 -1
v 0 12 -1
v 1 12 -1
v 2 12 -1
v -1 12 -2
v 0 12 -2
v -1 12 -3
v 0 12 -3
v 1 13 -1
v 2 13 -1
v 0 13 -2
v 1 13 -2
v 2 13 -2
v 0 13 -3
v 1 13 -3
v 2 13 -3
v 0 14 -0
v 1 14 -0
v -1 14 -1
v 0 14 -1
v 1 14 -1
v -1 14 -2
v 0 14 -2
v 0 15 -1
v 1 15 -1
v 0 15 -2
v 1 15 -2

# faces
f 3/2/1 2/2/1 1/2/1
f 6/2/1 3/2/1 1/2/1
f 6/2/1 4/2/1 3/2/1
f 7/2/1 4/2/1 6/2/1
f 9/2/1 6/2/1 5/2/1
f 9/2/1 8/2/1 7/2/1
f 9/2/1 7/2/1 6/2/1
f 10/2/1 8/2/1 9/2/1
f 11/2/1 8/2/1 10/2/1
f 12/2/1 8/2/1 11/2/1
f 13/2/1 9/2/1 5/2/1
f 14/3/1 10/3/1 9/3/1
f 14/2/1 9/2/1 13/2/1
f 15/2/1 11/2/1 10/2/1
f 15/3/1 10/3/1 14/3/1
f 16/2/1 11/2/1 15/2/1
f 17/3/1 16/3/1 15/3/1
f 18/3/1 16/3/1 17/3/1
f 21/1/1 20/1/1 19/1/1
f 22/1/1 20/1/1 21/1/1
f 27/1/1 24/1/1 23/1/1
f 28/1/1 24/1/1 27/1/1
f 29/2/1 26/2/1 25/2/1
f 31/2/1 26/2/1 29/2/1
f 32/2/1 26/2/1 31/2/1
f 36/2/1 31/2/1 30/2/1
f 37/3/1 32/3/1 31/3/1
f 37/2/1 31/2/1 36/2/1
f 38/3/1 32/3/1 37/3/1
f 39/2/1 35/2/1 34/2/1
f 39/2/1 34/2/1 33/2/1
f 40/2/1 35/2/1 39/2/1
f 41/2/1 35/2/1 40/2/1
f 42/2/1 37/2/1 36/2/1
f 43/3/1 40/3/1 39/3/1
f 44/2/1 41/2/1 40/2/1
f 44/3/1 40/3/1 43/3/1
f 44/2/1 42/2/1 41/2/1
f 45/2/1 37/2/1 42/2/1
f 45/2/1 42/2/1 44/2/1
f 46/2/1 37/2/1 45/2/1
f 47/2/1 45/2/1 44/2/1
f 48/2/1 45/2/1 47/2/1
f 49/3/1 46/3/1 45/3/1
f 49/2/1 45/2/1 48/2/1
f 50/3/1 46/3/1 49/3/1
f 51/2/1 49/2/1 48/2/1
f 52/2/1 49/2/1 51/2/1
f 53/3/1 52/3/1 51/3/1
f 54/3/1 52/3/1 53/3/1
f 57/1/1 56/1/1 55/1/1
f 59/1/1 57/1/1 55/1/1
f 59/1/1 58/1/1 57/1/1
f 60/1/1 58/1/1 59/1/1
f 61/1/1 58/1/1 60/1/1
f 62/1/1 58/1/1 61/1/1
f 66/2/1 64/2/1 63/2/1
f 67/2/1 64/2/1 66/2/1
f 68/2/1 66/2/1 65/2/1
f 69/2/1 66/2/1 68/2/1
f 72/3/1 71/3/1 70/3/1
f 73/3/1 71/3/1 72/3/1
f 76/2/1 75/2/1 74/2/1
f 77/2/1 75/2/1 76/2/1
f 81/2/1 78/2/1 77/2/1
f 82/2/1 80/2/1 79/2/1
f 83/2/1 80/2/1 82/2/1
f 84/2/1 81/2/1 77/2/1
f 85/2/1 81/2/1 84/2/1
f 87/2/1 86/2/1 85/2/1
f 88/2/1 86/2/1 87/2/1
f 91/1/1 90/1/1 89/1/1
f 92/1/1 90/1/1 91/1/1
f 96/2/1 94/2/1 93/2/1
f 97/2/1 94/2/1 96/2/1
f 98/2/1 96/2/1 95/2/1
f 99/2/1 96/2/1 98/2/1
f 102/3/1 101/3/1 100/3/1
f 103/3/1 101/3/1 102/3/1
f 108/2/1 105/2/1 104/2/1
f 109/2/1 105/2/1 108/2/1
f 111/2/1 107/2/1 106/2/1
f 112/2/1 111/2/1 110/2/1
f 113/2/1 107/2/1 111/2/1
f 113/2/1 111/2/1 112/2/1
f 114/2/1 107/2/1 113/2/1
f 115/2/1 107/2/1 114/2/1
f 116/2/2 117/2/2 119/2/2
f 119/2/2 117/2/2 120/2/2
f 118/2/2 119/2/2 121/2/2
f 121/2/2 119/2/2 122/2/2
f 123/2/2 124/2/2 125/2/2
f 125/2/2 124/2/2 126/2/2
f 126/2/2 124/2/2 127/2/2
f 128/1/2 129/1/2 130/1/2
f 130/1/2 129/1/2 131/1/2
f 131/1/2 132/1/2 133/1/2
f 133/1/2 132/1/2 134/1/2
f 135/2/2 136/2/2 137/2/2
f 137/2/2 136/2/2 138/2/2
f 138/2/2 139/2/2 140/2/2
f 138/2/2 140/2/2 142/2/2
f 140/2/2 141/2/2 142/2/2
f 142/2/2 141/2/2 143/2/2
f 143/2/2 141/2/2 144/2/2
f 144/2/2 141/2/2 145/2/2
f 146/1/2 147/1/2 148/1/2
f 148/1/2 147/1/2 149/1/2
f 146/1/2 148/1/2 150/1/2
f 150/1/2 148/1/2 151/1/2
f 152/1/2 153/1/2 156/1/2
f 156/1/2 153/1/2 157/1/2
f 154/2/2 155/2/2 160/2/2
f 158/2/2 159/2/2 162/2/2
f 162/2/2 159/2/2 163/2/2
f 160/2/2 161/2/2 164/2/2
f 154/2/2 160/2/2 164/2/2
f 164/2/2 161/2/2 165/2/2
f 165/2/2 161/2/2 166/2/2
f 162/3/2 163/3/2 168/3/2
f 168/3/2 163/3/2 169/3/2
f 166/2/2 167/2/2 170/2/2
f 167/2/2 168/2/2 170/2/2
f 165/2/2 166/2/2 170/2/2
f 170/2/2 168/2/2 171/2/2
f 171/2/2 168/2/2 172/2/2
f 172/2/2 168/2/2 173/2/2
f 171/2/2 172/2/2 174/2/2
f 172/3/2 173/3/2 175/3/2
f 174/2/2 172/2/2 175/2/2
f 175/3/2 173/3/2 176/3/2
f 179/2/2 180/2/2 182/2/2
f 177/2/2 178/2/2 183/2/2
f 181/2/2 182/2/2 184/2/2
f 177/2/2 183/2/2 185/2/2
f 183/3/2 184/3/2 185/3/2
f 184/2/2 182/2/2 186/2/2
f 185/3/2 184/3/2 186/3/2
f 182/2/2 180/2/2 187/2/2
f 186/2/2 182/2/2 187/2/2
f 185/2/2 186/2/2 187/2/2
f 187/2/2 180/2/2 188/2/2
f 177/2/2 185/2/2 189/2/2
f 185/2/2 187/2/2 189/2/2
f 189/2/2 187/2/2 190/2/2
f 190/2/2 187/2/2 191/2/2
f 191/2/2 187/2/2 192/2/2
f 190/2/2 191/2/2 193/2/2
f 191/3/2 192/3/2 194/3/2
f 193/2/2 191/2/2 194/2/2
f 194/3/2 192/3/2 195/3/2
f 198/2/3 197/2/3 196/2/3
f 199/2/3 197/2/3 198/2/3
f 200/2/3 197/2/3 199/2/3
f 204/2/3 200/2/3 199/2/3
f 204/2/3 201/2/3 200/2/3
f 205/3/3 202/3/3 201/3/3
f 205/2/3 201/2/3 204/2/3
f 206/3/3 202/3/3 205/3/3
f 209/2/3 204/2/3 203/2/3
f 209/2/3 207/2/3 206/2/3
f 209/2/3 206/2/3 205/2/3
f 209/2/3 205/2/3 204/2/3
f 210/2/3 207/2/3 209/2/3
f 211/2/3 207/2/3 210/2/3
f 212/2/3 209/2/3 208/2/3
f 212/2/3 210/2/3 209/2/3
f 213/2/3 210/2/3 212/2/3
f 216/2/3 215/2/3 214/2/3
f 217/2/3 215/2/3 216/2/3
f 224/2/3 218/2/3 217/2/3
f 225/2/3 218/2/3 224/2/3
f 226/2/3 220/2/3 219/2/3
f 227/2/3 220/2/3 226/2/3
f 229/1/3 222/1/3 221/1/3
f 230/1/3 222/1/3 229/1/3
f 232/2/3 224/2/3 223/2/3
f 233/2/3 224/2/3 232/2/3
f 235/2/3 228/2/3 227/2/3
f 236/2/3 228/2/3 235/2/3
f 238/2/3 232/2/3 231/2/3
f 239/2/3 232/2/3 238/2/3
f 241/2/3 235/2/3 234/2/3
f 242/2/3 235/2/3 241/2/3
f 243/2/3 240/2/3 239/2/3
f 243/2/3 238/2/3 237/2/3
f 243/2/3 239/2/3 238/2/3
f 244/2/3 240/2/3 243/2/3
f 251/3/3 246/3/3 245/3/3
f 252/3/3 246/3/3 251/3/3
f 256/1/3 248/1/3 247/1/3
f 257/1/3 248/1/3 256/1/3
f 259/1/3 250/1/3 249/1/3
f 260/1/3 250/1/3 259/1/3
f 261/1/3 250/1/3 260/1/3
f 262/2/3 254/2/3 253/2/3
f 263/3/3 255/3/3 254/3/3
f 263/2/3 254/2/3 262/2/3
f 264/3/3 255/3/3 263/3/3
f 267/1/3 260/1/3 259/1/3
f 267/1/3 259/1/3 258/1/3
f 268/1/3 260/1/3 267/1/3
f 269/1/3 260/1/3 268/1/3
f 272/2/3 265/2/3 264/2/3
f 273/2/3 265/2/3 272/2/3
f 274/1/3 267/1/3 266/1/3
f 275/1/3 267/1/3 274/1/3
f 278/2/3 271/2/3 270/2/3
f 279/2/3 271/2/3 278/2/3
f 280/2/3 277/2/3 276/2/3
f 281/2/3 277/2/3 280/2/3
f 284/2/3 283/2/3 282/2/3
f 285/2/3 283/2/3 284/2/3
f 288/2/3 287/2/3 286/2/3
f 289/2/3 287/2/3 288/2/3
f 292/2/3 291/2/3 290/2/3
f 293/2/3 291/2/3 292/2/3
f 294/2/4 295/2/4 296/2/4
f 296/2/4 295/2/4 297/2/4
f 298/2/4 299/2/4 301/2/4
f 299/2/4 300/2/4 301/2/4
f 301/2/4 300/2/4 302/2/4
f 303/2/4 304/2/4 311/2/4
f 311/2/4 304/2/4 312/2/4
f 305/2/4 306/2/4 313/2/4
f 306/3/4 307/3/4 314/3/4
f 313/2/4 306/2/4 314/2/4
f 314/3/4 307/3/4 315/3/4
f 308/1/4 309/1/4 319/1/4
f 311/1/4 312/1/4 320/1/4
f 310/1/4 311/1/4 320/1/4
f 316/2/4 317/2/4 321/2/4
f 317/3/4 318/3/4 322/3/4
f 321/2/4 317/2/4 322/2/4
f 322/3/4 318/3/4 323/3/4
f 308/1/4 319/1/4 325/1/4
f 319/1/4 320/1/4 325/1/4
f 325/1/4 320/1/4 326/1/4
f 326/1/4 320/1/4 327/1/4
f 320/1/4 312/1/4 328/1/4
f 327/1/4 320/1/4 328/1/4
f 323/2/4 324/2/4 329/2/4
f 322/2/4 323/2/4 329/2/4
f 329/2/4 324/2/4 330/2/4
f 326/1/4 327/1/4 331/1/4
f 331/1/4 327/1/4 332/1/4
f 328/1/4 312/1/4 333/1/4
f 333/1/4 312/1/4 334/1/4
f 335/2/4 336/2/4 337/2/4
f 337/2/4 336/2/4 338/2/4
f 339/2/4 340/2/4 344/2/4
f 344/2/4 340/2/4 345/2/4
f 340/3/4 341/3/4 346/3/4
f 345/2/4 340/2/4 346/2/4
f 346/3/4 341/3/4 347/3/4
f 347/2/4 348/2/4 351/2/4
f 345/2/4 346/2/4 351/2/4
f 346/2/4 347/2/4 351/2/4
f 351/2/4 348/2/4 352/2/4
f 352/2/4 348/2/4 353/2/4
f 353/2/4 348/2/4 354/2/4
f 349/1/4 350/1/4 355/1/4
f 355/1/4 350/1/4 356/1/4
f 342/2/4 343/2/4 357/2/4
f 357/2/4 343/2/4 358/2/4
f 352/2/4 353/2/4 360/2/4
f 353/3/4 354/3/4 361/3/4
f 360/2/4 353/2/4 361/2/4
f 361/3/4 354/3/4 362/3/4
f 358/2/4 359/2/4 363/2/4
f 359/3/4 360/3/4 364/3/4
f 363/2/4 359/2/4 364/2/4
f 364/3/4 360/3/4 365/3/4
f 366/2/4 367/2/4 369/2/4
f 367/3/4 368/3/4 370/3/4
f 369/2/4 367/2/4 370/2/4
f 370/3/4 368/3/4 371/3/4
f 371/3/4 372/3/4 373/3/4
f 370/2/4 371/2/4 373/2/4
f 373/3/4 372/3/4 374/3/4
f 370/2/4 373/2/4 377/2/4
f 373/2/4 374/2/4 377/2/4
f 374/3/4 375/3/4 378/3/4
f 377/2/4 374/2/4 378/2/4
f 378/3/4 375/3/4 379/3/4
f 376/2/4 377/2/4 380/2/4
f 380/2/4 377/2/4 381/2/4
f 385/1/5 383/1/5 382/1/5
f 386/1/5 383/1/5 385/1/5
f 388/1/5 385/1/5 384/1/5
f 388/1/5 387/1/5 386/1/5
f 388/1/5 386/1/5 385/1/5
f 389/1/5 387/1/5 388/1/5
f 390/1/5 387/1/5 389/1/5
f 391/1/5 387/1/5 390/1/5
f 394/2/5 393/2/5 392/2/5
f 395/2/5 393/2/5 394/2/5
f 398/2/5 397/2/5 396/2/5
f 399/2/5 397/2/5 398/2/5
f 404/2/5 401/2/5 400/2/5
f 405/2/5 401/2/5 404/2/5
f 407/2/5 403/2/5 402/2/5
f 408/2/5 403/2/5 407/2/5
f 409/1/5 406/1/5 405/1/5
f 410/1/5 406/1/5 409/1/5
f 411/1/5 408/1/5 407/1/5
f 412/1/5 408/1/5 411/1/5
f 416/2/5 413/2/5 412/2/5
f 417/2/5 413/2/5 416/2/5
f 418/2/5 415/2/5 414/2/5
f 419/2/5 415/2/5 418/2/5
f 423/2/5 421/2/5 420/2/5
f 424/2/5 421/2/5 423/2/5
f 427/2/5 423/2/5 422/2/5
f 428/2/5 423/2/5 427/2/5
f 431/2/5 426/2/5 425/2/5
f 432/2/5 426/2/5 431/2/5
f 433/3/5 430/3/5 429/3/5
f 434/3/5 430/3/5 433/3/5
f 439/2/5 436/2/5 435/2/5
f 440/2/5 436/2/5 439/2/5
f 441/2/5 438/2/5 437/2/5
f 442/2/5 438/2/5 441/2/5
f 443/2/5 441/2/5 440/2/5
f 444/2/5 441/2/5 443/2/5
f 448/2/5 446/2/5 445/2/5
f 448/2/5 447/2/5 446/2/5
f 449/2/5 447/2/5 448/2/5
f 450/2/5 447/2/5 449/2/5
f 451/2/5 447/2/5 450/2/5
f 454/2/5 453/2/5 452/2/5
f 455/2/5 453/2/5 454/2/5
f 458/2/5 457/2/5 456/2/5
f 459/2/5 457/2/5 458/2/5
f 460/1/6 461/1/6 462/1/6
f 462/1/6 461/1/6 463/1/6
f 464/1/6 465/1/6 466/1/6
f 466/1/6 465/1/6 467/1/6
f 468/1/6 469/1/6 470/1/6
f 470/1/6 469/1/6 471/1/6
f 471/1/6 472/1/6 473/1/6
f 473/1/6 472/1/6 474/1/6
f 475/2/6 476/2/6 477/2/6
f 477/2/6 476/2/6 478/2/6
f 479/2/6 480/2/6 481/2/6
f 481/2/6 480/2/6 482/2/6
f 483/2/6 484/2/6 485/2/6
f 485/2/6 484/2/6 486/2/6
f 485/3/6 486/3/6 489/3/6
f 489/3/6 486/3/6 490/3/6
f 487/2/6 488/2/6 491/2/6
f 491/2/6 488/2/6 492/2/6
f 493/3/6 494/3/6 495/3/6
f 495/3/6 494/3/6 496/3/6
f 497/3/6 498/3/6 499/3/6
f 499/3/6 498/3/6 500/3/6
f 501/3/6 502/3/6 503/3/6
f 503/3/6 502/3/6 504/3/6
f 505/3/6 506/3/6 509/3/6
f 509/3/6 506/3/6 510/3/6
f 507/2/6 508/2/6 511/2/6
f 511/2/6 508/2/6 512/2/6
f 513/2/6 514/2/6 515/2/6
f 515/2/6 514/2/6 516/2/6
f 515/3/6 516/3/6 518/3/6
f 518/3/6 516/3/6 519/3/6
f 517/3/6 518/3/6 520/3/6
f 520/3/6 518/3/6 521/3/6
f 522/2/6 523/2/6 525/2/6
f 525/2/6 523/2/6 526/2/6
f 524/2/6 525/2/6 528/2/6
f 528/2/6 525/2/6 529/2/6
f 526/2/6 527/2/6 530/2/6
f 530/2/6 527/2/6 531/2/6
f 532/3/6 533/3/6 534/3/6
f 534/3/6 533/3/6 535/3/6
f 536/2/6 537/2/6 539/2/6
f 539/2/6 537/2/6 540/2/6
f 538/2/6 539/2/6 541/2/6
f 539/3/6 540/3/6 542/3/6
f 541/2/6 539/2/6 542/2/6
f 542/3/6 540/3/6 543/3/6
f 544/2/6 545/2/6 547/2/6
f 547/2/6 545/2/6 548/2/6
f 546/3/6 547/3/6 549/3/6
f 549/3/6 547/3/6 550/3/6
f 551/2/6 552/2/6 553/2/6
f 553/2/6 552/2/6 554/2/6
